<svg width="37" height="38" viewBox="0 0 37 38" fill="none" xmlns="http://www.w3.org/2000/svg">
<path d="M18.7976 37.4001C8.64955 37.4001 0.393555 29.1465 0.393555 19.0001C0.393555 8.8545 8.64955 0.600098 18.7976 0.600098C23.3944 0.600098 27.7952 2.3041 31.1904 5.3977L31.8096 5.9625L25.7392 12.0305L25.1768 11.5489C23.396 10.0241 21.1304 9.1841 18.7968 9.1841C13.3832 9.1841 8.97835 13.5873 8.97835 19.0001C8.97835 24.4129 13.3832 28.8161 18.7968 28.8161C22.7 28.8161 25.7832 26.8233 27.236 23.4265H17.9976V15.1409L36.0368 15.1657L36.1704 15.8001C37.1136 20.2657 36.3584 26.8345 32.548 31.5337C29.3904 35.4265 24.7648 37.4001 18.7976 37.4001Z" fill="white"/>
</svg>
