<svg width="343" height="512" viewBox="0 0 343 512" fill="none" xmlns="http://www.w3.org/2000/svg">
<path fill-rule="evenodd" clip-rule="evenodd" d="M153.279 330.989C152.693 337.083 153.89 342.903 156.739 347.823L157.667 349.424L155.902 350.04C152.69 351.162 149.119 351.707 144.983 351.707C140.727 351.707 136.301 351.115 132.745 350.639L130.468 350.335L131.587 348.361C132.486 346.774 132.653 344.851 132.829 342.815C132.877 342.268 132.926 341.702 132.99 341.143C136.359 311.072 140.619 280.609 144.738 251.149C145.822 243.397 146.943 235.381 148.03 227.495L151.149 227.615C151.988 242.211 152.803 257.053 153.59 271.406C153.936 277.718 154.283 284.03 154.632 290.341C155.877 306.296 155.447 319.216 153.279 330.989ZM152.006 511.311C156.586 511.311 161.176 510.835 165.646 509.895C179.635 506.964 192.344 500.047 203.158 493.794C203.711 493.481 204.271 493.169 204.846 492.847C209.08 490.482 214.349 487.54 217.651 483.95C221.273 480.012 221.896 476.088 219.612 471.601L219.251 470.891L219.629 470.19C221.994 465.795 221.818 460.357 219.201 456.967L217.002 454.118L220.618 454.501C224.263 454.887 227.938 455.41 231.492 455.916C235.435 456.478 239.513 457.059 243.529 457.447L244.645 457.555L244.901 458.629C245.044 459.227 245.221 459.59 246.46 459.59C247.534 459.59 248.978 459.275 250.505 458.943C252.402 458.531 254.551 458.063 256.624 458.063C257.536 458.063 258.356 458.15 259.131 458.329L259.583 458.432L259.904 458.761C260.109 458.971 260.459 459.101 260.816 459.101C261.086 459.101 261.337 459.026 261.504 458.895L262.011 458.5L262.653 458.57C273.849 459.797 283.503 461.951 292.165 465.154L292.205 465.169L292.392 465.25C295.525 466.6 298.763 467.995 301.713 467.995C303.869 467.995 305.62 467.263 307.223 465.691L307.676 465.247L308.315 465.241C314.801 465.181 317.764 457.631 318.174 452.57L318.225 451.933L318.72 451.519C330.022 442.049 336.694 429.044 339.119 411.759C341.327 396.014 339.632 379.414 337.682 365.252C333.172 328.55 328.468 295.649 316.511 264.444L315.952 262.986L317.441 262.451C322.605 260.599 326.552 258.388 329.507 255.694L329.712 255.506L329.969 255.401C334.205 253.664 336.279 247.251 336.814 245.327L336.857 245.172L336.932 245.029C337.796 243.374 337.995 241.071 337.478 238.712L337.423 238.458L337.455 238.2C337.734 235.96 336.808 233.618 335.827 231.138C335.379 230.005 334.916 228.835 334.577 227.668C333.414 224.336 332.252 220.944 331.128 217.664C328.606 210.304 325.998 202.693 323.22 195.29L322.84 194.278L323.677 193.58C325.106 192.388 324.629 190.986 322.568 187.632C322.081 186.84 321.621 186.09 321.271 185.352C318.63 180.795 315.799 176.421 312.856 172.35L312.796 172.267L312.747 172.176C297.646 144.018 270.86 128.511 237.322 128.511L236.639 128.513L236.261 128.286C229.975 124.512 225.488 118.037 222.543 108.491L222.449 108.186L222.485 107.87C222.586 106.99 222.697 105.837 222.659 104.717C222.563 101.883 221.45 99.3529 219.606 97.7768C216.107 94.7865 210.794 94.5361 205.653 94.5361H204.915C198.341 94.5562 193.701 95.6956 190.31 98.1238C186.37 100.945 184.193 105.499 183.653 112.046C183.492 114.005 183.498 116.035 183.503 117.997L183.504 118.545L183.438 118.763C182.965 120.319 182.412 121.814 181.793 123.207L181.156 124.64L179.709 123.994C178.772 123.576 177.586 123.361 176.079 123.337C175.645 123.327 175.221 123.323 174.794 123.323C171.297 123.323 167.556 123.641 163.938 123.95C161.212 124.182 158.393 124.422 155.664 124.529L155.627 124.53C155.627 124.53 155.25 124.528 155.081 124.528C148.449 124.528 143.641 125.569 139.951 127.805C135.978 130.212 133.121 134.076 130.961 139.964C119.374 173.713 114.61 210.065 110.408 242.136C108.024 258.908 107.299 276.102 106.598 292.73C105.858 310.28 105.093 328.429 102.383 346.169L102.169 347.571L100.731 347.479C94.3986 347.071 87.5561 346.192 80.3119 345.261C69.3053 343.848 57.924 342.386 46.9216 342.386C31.538 342.386 19.874 345.408 11.2686 351.624C5.26935 357.268 2.16571 364.91 2.29324 373.729C2.47354 386.19 9.07513 399.966 19.1115 408.826L19.1494 408.861C31.8354 420.826 54.9921 431.204 87.976 439.706C118.307 447.525 149.68 451.774 165.682 453.61L169.643 454.065L166.428 456.385C165.127 457.325 163.94 458.152 162.799 458.914L162.063 459.405L161.256 459.036C158.957 457.983 157.496 457.762 156.675 457.762C155.947 457.762 155.069 457.92 155.02 458.672C154.989 459.165 155.34 459.897 156.081 459.989L160.018 460.48L156.803 462.768C154.656 464.297 151.453 466.139 147.744 468.273C135.609 475.254 117.27 485.804 120.424 495.068L120.631 495.676L120.337 496.25C119.49 497.909 119.418 499.448 120.117 500.957C121.614 504.19 126.298 506.644 130.276 507.642L130.345 507.66L130.411 507.683C137.333 510.09 144.598 511.311 152.006 511.311Z" fill="white"/>
<path fill-rule="evenodd" clip-rule="evenodd" d="M165.322 451.796C164.844 451.31 164.643 450.673 165.09 449.925C166.817 447.722 170.4 449.229 172.629 449.737C173.47 449.039 174.306 448.337 175.111 447.597C174.831 445.865 176.917 444.713 177.774 443.377C178.615 442.393 179.407 441.275 180.416 440.45C182.875 438.535 186.282 439.83 189.136 439.743C191.333 436.952 193.596 434.249 195.687 431.365C193.278 427.323 193.108 422.587 193.907 418.082C156.95 404.081 124.96 377.572 84.9888 371.446C83.6143 371.217 82.8434 369.549 83.186 368.326C85.9742 361.683 126.042 378.824 132.031 381.928C149.696 390.373 166.242 400.899 183.41 410.187C186.99 412.086 190.928 413.106 194.843 414.093C200.858 394.382 211.034 376.313 218.837 357.309C218.33 356.432 217.899 355.512 217.533 354.567C217.792 365.018 207.611 364.872 206.205 354.957C206.785 360.125 202.871 371.194 197.221 363.931C195.896 362.107 195.426 359.771 195.201 357.414C194.911 359.043 194.582 360.665 194.216 362.281C192.766 365.484 188.807 361.59 187.887 359.92C187.356 359.825 186.86 359.583 186.497 359.288C176.506 360.673 164.74 360.593 157.41 352.719C144.976 357.481 131.215 353.215 118.641 351.313C93.053 348.376 67.3631 343.899 41.5452 344.241C30.0186 344.909 16.4201 346.767 9.12912 356.587C-0.223328 370.742 5.06305 389.859 15.3798 402.112C40.1968 433.483 125.383 447.124 165.322 451.796ZM164.624 463.096C164.173 462.975 163.718 462.864 163.266 462.759C156.022 468.78 121.907 484.416 124.502 493.755C125.419 494.916 127.614 495.181 129.002 495.556C131.419 496.209 133.86 496.774 136.324 497.221C144.289 498.668 152.539 498.92 160.493 497.27C163.42 496.826 166.062 495.579 168.727 494.374C177.34 490.591 186.826 486.412 195.397 482.66C206.286 478.351 225.386 469.857 217.53 455.525C210.088 463.882 200.642 463.152 195.883 452.765C194.242 449.612 192.81 445.361 188.956 444.086C186.922 442.714 184.322 442.429 182.624 443.958C182.501 443.768 182.391 443.5 182.331 443.264C180.416 445.986 178.764 448.851 176.52 451.339C177.29 451.38 185.313 457.308 182.945 457.311C180.097 455.846 177.267 454.625 174.191 453.836C171.962 456.075 169.511 458.156 166.971 460.081C169.438 461.708 171.654 463.699 173.436 465.861C173.59 466.051 173.402 466.298 173.172 466.195C170.405 464.964 167.559 463.882 164.624 463.096ZM127.905 503.479C155.612 515.905 184.945 502.068 208.573 487.317C214.026 484.277 221.199 479.967 220.096 472.81C216.08 478.677 209.458 482.018 203.103 484.914C192.426 489.733 181.678 494.397 170.974 499.157C169.963 502.505 165.129 502.633 162.207 503.376C149.202 505.895 135.221 504.643 122.981 499.622C123.69 501.716 126.007 502.677 127.905 503.479ZM238.451 455.096C239.136 455.183 239.821 455.263 240.505 455.34C240.435 454.435 240.981 453.531 241.859 453.251C241.464 451.333 241.318 449.352 241.529 447.407C240.385 450.359 236.69 449.463 234.343 448.612C230.991 447.702 227.659 446.723 224.345 445.679C223.039 448.103 221.654 450.491 219.953 452.685C226.146 453.235 232.281 454.327 238.451 455.096ZM241.177 445.808C241.341 446.155 241.576 446.522 241.582 446.939C241.749 445.502 242.076 444.083 242.572 442.724C242.107 443.752 241.642 444.78 241.177 445.808ZM245.086 438.106C248.133 434.141 253.764 430.9 258.97 432.005C259.304 432.077 259.312 432.614 258.97 432.681C251.977 433.629 245.836 439.167 245.593 446.327C245.041 449.568 247.299 452.749 246.539 455.859C246.69 455.869 246.842 455.877 246.991 455.887C247.046 456.095 247.096 456.28 247.161 456.442C246.406 456.568 246.183 457.781 247.075 457.997C247.602 458.126 248.154 458.192 248.716 458.221C251.567 457.452 254.574 457.275 257.3 456.139C259.997 454.949 259.322 451.606 260.274 449.29C260.971 446.62 261.774 443.96 262.785 441.398C262.858 441.192 263.138 441.239 263.161 441.447C263.874 446.559 263.851 451.757 263.678 456.91C264.614 457.005 265.544 457.111 266.477 457.226C266.417 455.787 270.742 438.253 273.02 442.753C271.873 447.7 271.735 452.868 271.612 457.958C278.377 459.071 285.044 460.729 291.529 462.985C296.1 464.368 301.535 468.459 305.972 464.761C309.409 461.924 310.566 456.974 310.242 452.762C305.774 427.842 270.48 424.93 249.646 426.773C247.678 431.306 245.674 435.824 243.643 440.332C244.064 439.556 244.545 438.81 245.086 438.106ZM316.145 452.277C316.527 446.618 315.573 439.573 311.374 435.356C301.762 427.243 288.305 424.691 276.295 421.754C270.7 420.651 265.029 419.919 259.335 419.554C257.315 419.395 254.749 419.852 253.323 418.202C252.588 419.94 251.844 421.674 251.099 423.409C275.009 420.281 324.894 431.147 310.924 463.849C313.883 460.649 315.842 456.753 316.145 452.277ZM197.354 433.57C196.254 436.315 194.908 438.929 193.15 441.318C195.149 442.624 196.779 444.554 197.929 446.628C205.298 465.876 213.179 455.566 222.971 445.237C214.685 442.115 203.709 439.776 197.354 433.57ZM320.013 448.36C339.175 429.461 342.893 397.977 335.814 373.229C335.185 364.052 331.97 355.307 329.091 346.618C319.921 320.261 307.862 294.904 293.398 270.963C275.453 275.884 257.54 280.936 239.554 285.696C237.077 286.233 234.597 287.295 232.054 287.449C231.145 288.027 230.233 288.664 229.287 289.224C230.664 295.96 229.394 302.837 229.073 309.614C228.78 314.949 229.357 320.174 230.066 325.452C230.857 333.131 234.116 358.108 227.586 362.68C225.372 363.746 223.394 360.588 222.44 361.457C221.581 360.858 220.778 360.079 220.125 359.221C217.603 367.362 213.483 374.915 210.937 383.064C207.551 395.04 196.429 414.425 198.899 425.848C200.809 432.902 209.166 434.423 215.197 436.729C222.166 439.15 229.214 441.372 236.376 443.177C239.873 435.768 243.215 428.289 246.494 420.782C261.483 386.148 274.758 350.791 286.622 315.013C286.844 314.219 289.572 305.615 290.071 308.016C290.113 307.769 290.424 307.132 290.542 307.676C288.53 316.077 286.489 324.476 284.281 332.831C289.705 332.072 295.538 331.777 300.503 334.432C300.759 334.568 300.571 334.904 300.318 334.863C294.438 333.846 288.767 335.768 283.12 337.148C275.189 364.101 264.956 390.37 254.125 416.311C257.475 415.244 261.363 416.424 264.86 416.509C275.871 417.645 286.758 420.05 297.161 423.792C310.237 428.025 319.482 433.544 320.013 448.36ZM330.562 251.673C333.781 248.212 336.311 243.791 335.822 239.101C333.889 236.526 333.248 233.167 332.122 230.191C327.719 217.738 323.632 205.189 318.839 192.869C308.646 195.999 298.617 199.754 289.157 204.685C287.416 205.572 285.694 206.492 283.993 207.445C282.211 208.443 280.267 210.175 278.129 209.679C280.465 212.981 285.276 216.417 286.089 220.233C286.264 221.441 285.407 222.562 284.09 222.292C263.475 236.912 242.185 251.224 222.699 267.509C208.107 279.043 196.905 288.397 191.901 307.111C188.527 319.233 188.517 331.903 189.013 344.367C189.11 346.79 189.112 349.27 189.308 351.709C189.016 353.534 189.572 357.247 191.626 357.314C191.579 357.756 191.433 358.165 191.2 358.524C191.266 358.611 191.333 358.694 191.404 358.779C191.506 358.28 191.605 357.784 191.699 357.286C193.299 350.213 193.513 342.008 193.246 334.478C193.134 332.319 196.45 332.37 196.636 334.478C197.135 340.17 197.634 345.862 198.133 351.552C198.732 355.24 197.788 360.064 200.741 362.867C203.743 360.097 202.75 354.633 202.604 351.059C202.369 345.228 202.115 339.399 201.898 333.568C201.831 331.72 204.896 331.245 205.244 333.123C206.228 338.479 207.295 343.819 208.442 349.144C209.134 351.203 209.61 360.439 213.07 358.835C215.131 357.43 213.645 349.188 213.916 346.459C213.788 341.057 213.713 335.663 213.315 330.273C213.153 328.099 216.699 327.637 217.185 329.759C217.975 333.195 218.73 336.631 219.414 340.09C220.917 345.922 220.371 353.827 225.796 357.702C227.92 342.555 224.863 327.513 224.434 312.42C224.69 307.53 225.532 302.688 226.274 297.857C227.094 292.514 227.573 286.698 225.652 281.546C226.177 279.238 228.242 285.48 228.435 285.999C229.99 282.941 233.776 282.705 236.771 281.751C243.427 279.6 250.244 277.979 256.978 276.067C274.837 271.115 292.716 266.239 310.6 261.375C317.744 259.401 325.265 257.065 330.562 251.673ZM151.731 332.242C154.195 318.907 154.127 305.394 153.074 291.913C151.917 271.004 150.793 250.09 149.591 229.184C144.373 267.023 138.809 304.819 134.555 342.779C134.252 345.42 134.299 348.216 132.964 350.573C140.343 351.56 148.209 352.554 155.384 350.049C152.236 344.613 151.125 338.425 151.731 332.242ZM114.444 238.315C108.865 274.178 112.048 310.67 106.636 346.492C114.144 347.332 121.594 348.576 129.023 349.943C128.21 345.518 129.752 340.949 130.019 336.493C134.054 304.708 138.509 272.944 144.412 241.437C145.86 233.897 147.323 226.388 149 218.889C148.747 214.348 148.525 209.807 148.379 205.263C140.186 200.121 130.949 196.793 121.395 195.115C118.814 209.476 116.234 223.826 114.444 238.315ZM179.028 125.62C179.355 125.062 179.666 124.492 179.964 123.914C178.955 123.952 177.972 123.988 176.979 124.153C177.024 125.748 176.935 127.357 176.917 128.966C177.413 127.789 178.385 126.715 179.028 125.62ZM10.5271 350.36C34.3564 333.059 73.4965 344.081 101.101 345.86C106.364 311.405 104.216 276.388 109.122 241.877C113.639 207.399 118.403 172.441 129.749 139.407C134.432 126.635 142.533 122.842 155.87 122.945C162.639 122.68 169.796 121.598 176.373 121.752C177.816 121.775 179.323 121.966 180.625 122.546C182.454 118.429 183.447 114.009 183.949 109.556C183.98 109.273 184.341 109.222 184.448 109.491C185.995 113.369 186.159 117.602 185.318 121.662C184.709 124.571 181.085 136.02 176.875 131.541C176.541 140.934 178.608 152.152 187.824 157.027C203.929 164.037 226.191 157.654 235.519 142.774C237.322 139.801 238.877 136.637 240.874 133.782C226.964 129.85 219.156 113.21 222.433 100.538C224.458 110.393 228.15 121.405 237.346 126.926C270.831 126.851 298.671 142.078 314.402 171.405C317.481 175.664 320.326 180.089 322.934 184.591C324.338 187.603 328.448 191.792 324.959 194.701C328.989 205.438 332.564 216.324 336.342 227.146C337.38 230.752 339.753 234.535 339.279 238.325C339.792 240.661 339.768 243.424 338.595 245.67C337.482 249.674 334.984 255.06 330.842 256.759C327.327 259.964 322.882 262.171 318.246 263.834C330.609 296.091 335.315 330.88 339.504 364.962C343.61 394.778 345.729 431.047 320.005 452.595C319.506 458.76 315.842 466.617 308.598 466.683C303.581 471.602 297.466 468.904 291.882 466.498C282.457 463.013 272.571 461.081 262.748 460.004C261.695 460.827 259.981 460.69 259.043 459.732C253.093 458.362 244.846 463.908 243.643 458.884C235.971 458.141 228.383 456.748 220.718 455.936C223.948 460.12 223.716 466.29 221.283 470.81C227.479 482.979 213.046 490.026 204.222 495.019C192.308 501.906 179.867 508.442 166.242 511.297C154.264 513.812 141.715 513.049 130.157 509.03C124.084 507.506 115.602 502.503 119.206 495.453C114.638 482.039 146.717 468.138 156.153 461.42C152.296 460.94 152.155 452.947 162.186 457.54C163.399 456.73 164.591 455.895 165.769 455.044C125.192 450.388 47.6992 437.577 18.3326 409.884C2.19931 395.644 -7.10898 366.84 10.5271 350.36Z" fill="black"/>
<path d="M133.087 135.098L133.078 135.124L133.07 135.15L126.57 155.65L126.547 155.724L126.531 155.8L119.531 189.8L119.22 191.311L120.739 191.58C133.535 193.843 139.798 196.311 149.552 201.994L155.503 297.692C155.503 297.692 155.503 297.693 155.503 297.694C156.185 309.207 156.121 314.005 156.001 318.459C155.823 325.012 154.95 328.066 153.566 332.558L153.524 332.697L153.508 332.841C152.93 338.273 153.073 342.409 154.505 345.96C155.949 349.54 158.616 352.315 162.62 355.215L162.818 355.358L163.05 355.431C169.769 357.541 174.837 358.588 178.664 358.555C182.56 358.521 185.355 357.356 187.199 354.901L187.492 354.511L187.5 354.023C187.609 346.801 187.443 341.265 187.274 336.599C187.255 336.065 187.236 335.542 187.217 335.031C187.07 331.065 186.948 327.751 187.032 324.459C187.221 317.102 188.445 309.811 192.927 295.962C195.052 289.395 201.54 281.514 210.397 273.258C219.194 265.057 230.117 256.674 240.811 249.089C251.499 241.507 261.927 234.744 269.722 229.777C271.654 228.546 273.434 227.42 275.014 226.419C276.61 225.409 278.003 224.527 279.146 223.795C280.287 223.065 281.205 222.468 281.849 222.026C282.168 221.807 282.442 221.612 282.649 221.449C282.75 221.37 282.861 221.278 282.961 221.181C283.01 221.133 283.078 221.064 283.147 220.978C283.198 220.914 283.336 220.736 283.423 220.474C283.606 219.926 283.48 219.423 283.403 219.173C283.31 218.876 283.169 218.585 283.025 218.325C282.733 217.8 282.313 217.199 281.84 216.581C280.886 215.334 279.586 213.843 278.296 212.427C277.001 211.006 275.693 209.634 274.71 208.62C274.252 208.148 273.864 207.752 273.58 207.463C273.694 206.719 273.88 205.932 274.157 205.325C274.287 205.039 274.411 204.852 274.512 204.736L276.439 206.664L277.218 207.442L278.194 206.933C279.357 206.326 280.484 205.736 281.581 205.162C295.5 197.88 304.556 193.142 320.418 188.544L322.25 188.012L321.301 186.357C311.215 168.756 304.696 157.66 290.499 144.984L290.44 144.931L290.375 144.885C282.307 139.086 275.14 134.945 267.194 132.103C259.248 129.261 250.598 127.743 239.587 127.105L239.521 127.102L239.455 127.104C239.031 127.116 238.533 127.145 238.134 127.271C237.966 127.324 237.478 127.491 237.155 127.988C236.727 128.649 236.915 129.317 237.098 129.659C237.256 129.954 237.475 130.161 237.597 130.269C237.741 130.397 237.902 130.518 238.056 130.627C238.363 130.843 238.764 131.097 239.2 131.372L239.292 131.43L239.391 131.474L242.491 132.852C231.857 154.904 213.951 163.985 199.389 162.633C191.954 161.943 185.349 158.547 180.859 152.729C176.37 146.912 173.899 138.546 174.992 127.754L174.996 127.715L174.998 127.675C175.022 127.189 174.949 126.669 174.702 126.166C174.455 125.662 174.079 125.267 173.636 124.963C172.804 124.391 171.644 124.077 170.274 123.875C167.492 123.466 162.961 123.418 155.962 123.603C149.414 123.763 144.407 124.648 140.672 126.502C136.86 128.395 134.461 131.252 133.087 135.098Z" fill="#ADEBFF" stroke="black" stroke-width="3"/>
<path d="M297.136 268.545L295.212 269.026L296.199 270.746L297.5 270L296.199 270.746L296.199 270.747L296.2 270.748L296.204 270.755L296.219 270.781L296.279 270.886C296.332 270.98 296.412 271.121 296.518 271.308C296.73 271.681 297.043 272.237 297.451 272.966C298.266 274.423 299.457 276.574 300.959 279.338C303.961 284.868 308.204 292.854 313.161 302.676C323.052 322.275 327.62 333.563 334.067 354.443L336.988 353.814C332.641 319.023 328.158 299.012 317.94 264.079L317.503 262.585L316.026 263.077L311.526 264.577L307.08 266.059L297.136 268.545Z" fill="#ADEBFF" stroke="black" stroke-width="3"/>
<path fill-rule="evenodd" clip-rule="evenodd" d="M209.365 19.1269C170.641 17.2253 153.166 44.4512 152.036 56.6117C151.251 65.053 156.246 74.7826 156.246 82.3256C156.246 86.1758 151.525 94.4418 153.723 100.053C158.614 112.544 168.972 126.406 182.17 126.406C195.369 126.406 212.546 130.051 227.129 109.199C228.498 107.243 245.805 96.1232 247.487 85.5571C251.675 59.2377 236.996 20.4838 209.365 19.1269Z" fill="white"/>
<path fill-rule="evenodd" clip-rule="evenodd" d="M211.19 2.18319C209.805 0.601447 207.468 -0.0312498 205.391 0.0912077C202.373 0.269792 199.749 2.12962 196.747 2.26738C193.6 2.4128 190.562 1.32344 187.407 1.82857C185.473 2.13982 183.557 3.03529 182.318 4.5456C178.026 3.31847 173.365 4.94359 170.632 8.49231C167.259 7.96931 163.591 10.1993 162.558 13.4442C158.274 13.5819 154.23 17.0184 153.752 21.3248C152.04 21.7764 150.553 22.9553 149.641 24.5138C148.581 26.3201 148.405 28.3917 148.596 30.4275C146.58 31.4556 145.556 33.665 145.288 36.0019C143.446 37.3744 142.646 39.8414 143.021 42.1707C141.611 42.9641 140.883 44.8112 140.891 46.4592C140.898 47.9976 141.307 49.3602 140.732 50.8448C140.22 52.167 140.036 53.269 140.318 54.654L140.347 54.7889C140.396 55.0147 140.438 55.2313 140.476 55.4448C140.094 55.779 139.772 56.1979 139.529 56.6852C138.646 58.466 138.778 60.497 139.451 62.303C139.156 63.453 139.194 64.6679 139.63 65.7734C138.813 66.9482 138.384 68.3891 138.51 69.8841C138.651 71.5579 139.417 73.0568 140.577 74.165C140.268 76.4514 141.199 78.9217 142.883 80.5315C142.644 81.9002 142.85 83.3348 143.6 84.6323C144.134 85.5571 144.854 86.246 145.684 86.7261C145.657 87.4897 145.76 88.2706 146.014 89.053C146.368 90.1388 146.966 91.1392 147.754 91.9448C147.284 94.9445 149.082 98.2731 152.248 99.1147C152.514 99.1854 152.768 99.2178 153.011 99.2229C153.325 102.108 154.012 104.953 155.075 107.655C157.778 114.535 162.694 120.551 169.104 124.304C172.275 126.159 175.836 127.429 179.472 127.96C182.088 128.343 184.604 128.248 187.23 127.988C190.526 127.659 193.838 127.166 197.041 126.319L197.557 126.183C198.885 125.827 200.285 125.417 201.436 124.702C202.723 123.901 203.392 122.666 203.689 121.212C203.854 120.403 203.341 119.532 202.453 119.515L202.396 119.515C202.202 119.519 202.01 119.512 201.815 119.5L201.668 119.49H201.661C201.65 119.487 201.645 119.487 201.635 119.487C201.548 119.475 201.464 119.449 201.379 119.436C200.403 119.272 199.55 119.435 198.633 119.739L198.518 119.778C196.975 120.309 195.445 120.801 193.85 121.166C192.202 121.541 190.534 121.84 188.861 122.074L188.695 122.095L188.644 122.102L188.618 122.105C188.613 122.105 188.608 122.105 188.603 122.107L188.11 122.169C187.721 122.215 187.333 122.255 186.945 122.296C186.229 122.368 185.514 122.424 184.798 122.465C172.451 123.158 162.081 113.451 158.951 101.813C157.817 97.6006 157.743 93.3988 158.077 89.1944C158.185 88.8882 158.248 88.5489 158.246 88.1764C158.246 87.9826 158.235 87.7912 158.223 87.5973C158.639 83.5307 159.362 79.4616 159.815 75.3796C160.343 70.6115 160.637 65.8154 160.53 61.0164C160.476 58.6463 160.223 56.2992 159.891 53.9524L159.771 53.1092C161.272 52.8166 162.668 52.1058 163.779 51.0769C166.19 52.4673 169.311 52.5905 171.691 51.1223C174.358 52.7926 178.085 52.9441 180.77 51.3111C182.394 52.4683 184.439 52.9676 186.447 52.5283C187.35 52.3308 188.248 51.9035 189.017 51.3119C189.566 51.4086 190.123 51.4461 190.676 51.4172L190.79 51.481C192.065 52.152 193.477 52.5936 194.931 52.5444C196.007 52.5081 197.115 52.2961 198.141 51.8951C199.238 52.5558 200.438 53.0069 201.721 53.1686C203.596 53.4046 205.618 52.9906 207.177 51.9288C210.026 53.5493 213.531 53.7988 216.606 52.7099C217.235 53.7751 218.107 54.6935 219.127 55.4015C218.945 56.0551 218.886 56.7521 218.949 57.4223C219.052 58.5254 219.329 59.5145 219.782 60.4028C219.305 61.3947 219.161 62.6127 219.429 63.8352C219.809 65.5787 220.825 67.0954 222.14 68.2766C222.256 71.0589 223.785 73.6678 226.271 75.1171C226.397 75.1903 226.523 75.25 226.648 75.3039C226.757 75.4539 226.889 75.5858 227.039 75.697C228.62 77.156 231.123 77.04 233.105 76.2157C233.143 76.2174 233.182 76.2208 233.22 76.2215C233.928 76.2394 234.411 75.9639 234.697 75.5582C234.986 75.5738 235.272 75.6041 235.561 75.6577C236.613 75.8542 237.768 76.2317 238.721 76.7218C241.194 77.9921 242.339 80.2371 242.681 82.9363C243.054 85.8804 242.206 88.8806 239.924 90.8731C238.816 91.8425 237.398 92.4497 235.957 92.7048C234.365 92.988 232.664 92.2915 231.488 93.6564C231.253 93.9268 231.092 94.3044 231.22 94.6693C231.619 95.8071 232.275 96.2433 233.302 96.4015C231.818 98.1593 230.295 99.8584 228.609 101.438C226.785 103.149 224.899 104.808 223.254 106.696C221.514 108.693 219.943 110.811 218.852 113.234C218.229 114.627 217.728 116.064 217.189 117.49L217.092 117.738C216.491 119.253 215.691 120.714 216.617 122.296C216.985 122.919 217.817 123.521 218.584 123.421C220.742 123.146 221.465 121.689 222.13 119.791C222.631 118.357 223.014 116.883 223.553 115.462C223.654 115.198 223.764 114.938 223.879 114.679C225.124 115.026 226.492 114.75 227.603 114.042C228.79 114.567 230.105 114.829 231.375 114.807C233.076 114.777 234.629 114.305 235.965 113.454C236.071 113.426 236.178 113.399 236.284 113.369C238.316 114.146 240.695 114.007 242.535 112.748C243.726 111.932 244.541 110.844 245.004 109.632C246.543 109.602 248.066 109.057 249.169 107.967C250.182 106.966 250.774 105.674 250.949 104.332C252.274 104.07 253.516 103.43 254.491 102.353C255.304 101.453 255.798 100.307 255.966 99.1173C257.579 98.6575 259.034 97.6054 259.829 96.1385C260.569 94.7728 260.676 93.2913 260.314 91.9438L260.408 91.8091C262.07 90.9404 263.338 89.5184 263.469 87.4871C263.505 86.9088 263.443 86.3301 263.286 85.7827C263.343 85.1706 263.306 84.5588 263.146 83.967C265.381 81.7959 266.191 78.3084 264.978 75.4256C267.162 73.0785 267.739 69.3665 266.137 66.5808C267.236 65.2539 267.801 63.5625 267.706 61.7562C267.589 59.5012 266.554 57.5314 265.315 55.7073C266.234 54.692 266.725 53.276 266.689 51.9086C266.638 49.9263 265.583 48.2196 264.262 46.8062C265.414 43.3162 264.127 39.5302 261.299 37.3209C261.871 36.3795 262.083 35.2136 261.896 34.0324C261.569 31.9684 260.019 30.5627 258.345 29.4504C258.695 28.3128 258.603 27.0854 258.046 25.9093C257.303 24.3404 255.9 23.3454 254.436 22.5035C254.058 19.0237 250.164 16.0515 246.899 17.8476C247.709 15.2581 245.376 12.462 242.694 12.166C241.381 8.19126 236.851 5.68599 232.779 6.6733C230.696 3.83127 226.821 2.73706 223.53 3.95627C219.912 1.18822 215.424 0.77748 211.19 2.18319ZM236.961 80.227C234.419 80.0893 232.513 82.1609 231.174 84.0564C229.917 85.8346 233.141 87.7123 234.082 85.7529C234.419 85.0539 234.802 84.3141 235.316 83.7018C235.402 83.8223 235.478 83.9472 235.554 84.0752L235.63 84.2044C235.686 84.2988 235.745 84.3957 235.793 84.4952C235.788 84.5131 235.865 84.7478 235.867 84.758C236.077 85.3932 236.534 85.8014 237.157 86.0208C237.962 86.3014 238.724 85.6968 238.982 84.9876C239.393 83.8548 238.438 82.8675 237.444 82.4185C238.42 82.2604 239.38 82.592 240.086 83.342C240.182 83.4466 240.346 83.3625 240.351 83.2324C240.433 81.4542 238.571 80.3138 236.961 80.227Z" fill="black"/>
<path fill-rule="evenodd" clip-rule="evenodd" d="M174.964 106.757C176.846 107.302 178.866 107.35 180.785 106.788C182.525 106.278 184.312 105.156 185.592 103.671C186.73 102.352 187.467 100.749 187.438 99.0379C187.435 98.8424 187.365 98.6793 187.257 98.5527C187.141 98.4164 186.979 98.3228 186.806 98.2822C186.627 98.2404 186.439 98.2552 186.278 98.328C186.133 98.3939 186.009 98.5059 185.931 98.6695C185.734 98.9277 185.538 99.182 185.341 99.4293C183.759 101.381 182.226 102.839 179.847 103.362C178.555 103.646 177.266 103.52 176.083 103.087C174.816 102.623 173.672 101.808 172.774 100.765C172.369 100.294 171.89 100.101 171.422 100.098C170.892 100.095 170.368 100.341 169.973 100.734C169.584 101.121 169.324 101.646 169.301 102.196C169.28 102.678 169.438 103.182 169.857 103.632C171.238 105.112 173.028 106.197 174.964 106.757ZM175.022 82.3189C173.093 83.4899 170.153 86.2205 172.229 89.1236C174.672 91.6833 178.189 88.7484 179.923 87.421C181.53 86.3923 183.336 89.0381 181.844 90.2393C169.32 99.4989 164.237 82.6251 174.047 80.9421C175.127 80.7566 175.528 81.9566 175.022 82.3189ZM193.07 77.1662C193.69 76.7702 194.419 76.6343 195.228 77.0016C195.859 77.2884 196.967 78.2448 197.738 79.5019C198.266 80.362 198.64 81.3709 198.562 82.4219C198.544 82.666 198.634 82.8459 198.777 82.979C198.889 83.0841 199.052 83.1613 199.243 83.1855C199.405 83.206 199.586 83.1875 199.734 83.1415C200.014 83.0541 200.163 82.8723 200.219 82.724C200.759 81.2922 200.526 79.6944 199.921 78.253C199.104 76.3077 197.621 74.6782 196.65 74.1529C194.987 73.2535 193.026 73.2122 191.361 74.1283C189.943 74.9081 189.057 76.167 188.176 77.4502C187.988 77.723 187.802 77.9938 187.61 78.2599C187.225 78.7929 187.187 79.3216 187.336 79.7749C187.501 80.2772 187.923 80.701 188.449 80.9228C188.936 81.1278 189.502 81.1567 190.002 80.9461C190.424 80.7681 190.812 80.4212 191.057 79.8326C191.471 78.8414 192.159 77.7478 193.07 77.1662ZM161.577 79.3715C162.002 79.5925 162.334 79.6591 162.805 79.5182C163.066 79.4401 163.323 79.2903 163.525 79.089C163.724 78.8895 163.868 78.6414 163.925 78.3662C164.062 77.687 164.434 77.0512 164.965 76.6368C165.418 76.2825 165.99 76.0947 166.625 76.2007C167.31 76.3148 167.962 76.7534 168.411 77.2705C168.562 77.4435 168.679 77.64 168.798 77.8352C169.019 78.2002 169.234 78.5394 169.54 78.8075C169.655 78.9095 169.83 78.9801 169.999 78.9801C170.067 78.9801 170.137 78.9689 170.204 78.9483C170.885 78.2651 171.016 77.7469 170.994 77.2329C170.971 76.6939 170.758 76.1481 170.415 75.6389C169.608 74.4445 168.076 73.4651 167.042 73.2433C165.627 72.9396 164.221 73.3042 163.094 74.0937C161.934 74.906 161.075 76.1672 160.807 77.5885C160.743 77.9308 160.77 78.3002 160.901 78.6206C161.028 78.9336 161.251 79.2018 161.577 79.3715ZM189.948 64.4313C190.797 65.2577 191.803 65.3858 192.82 65.4996C193.385 65.5635 193.836 65.615 194.28 65.715C195.5 65.9901 196.707 66.4043 197.807 67.001C198.958 67.6247 200.211 68.3769 201.113 69.3405C201.328 69.5698 201.53 69.8104 201.732 70.0515C201.917 70.2714 202.095 70.4831 202.282 70.6872C202.497 70.9217 202.702 71.1674 202.905 71.4124C203.031 71.6192 203.055 71.6701 203.081 71.723C203.119 71.8026 203.163 71.8916 203.214 71.9871C203.283 72.1179 203.364 72.2611 203.449 72.391C203.591 72.6283 203.667 72.6936 203.732 72.7229C203.841 72.7713 203.944 72.7951 204.045 72.7822C204.138 72.7701 204.227 72.7251 204.314 72.6514C204.75 72.2834 204.879 71.6795 204.866 71.0385C204.846 70.0658 204.487 68.9889 204.155 68.3268C203.385 66.7885 202.317 65.1894 201.033 64.0413C199.567 62.7307 197.964 61.7386 196.123 61.0549C194.978 60.6299 193.653 60.2398 192.406 60.2891C191.509 60.3245 190.652 60.5909 189.945 61.2562C189.51 61.6645 189.302 62.2454 189.302 62.8259C189.302 63.4179 189.518 64.0134 189.948 64.4313ZM159.849 71.9994C159.903 72.0878 159.978 72.1487 160.061 72.1853C160.149 72.2237 160.246 72.2347 160.339 72.219C160.432 72.2034 160.521 72.1613 160.591 72.0969C160.658 72.0352 160.709 71.9534 160.732 71.8532C161.296 69.3797 162.391 67.5394 164.729 66.3526C165.879 65.7688 167.201 65.3979 168.452 65.1021C168.816 65.0162 169.2 64.9605 169.588 64.9041C170.801 64.7272 172.022 64.5246 172.813 63.5456C173.29 62.9558 173.49 62.2015 173.376 61.5117C173.27 60.8623 172.89 60.2667 172.199 59.9099C170.479 59.0218 168.341 59.8932 166.605 60.6355C166.476 60.6906 166.349 60.7447 166.225 60.7968C164.527 61.5128 162.978 62.4579 161.704 63.8094C160.694 64.8817 159.757 66.4668 159.38 68.0974C159.067 69.4541 159.14 70.839 159.849 71.9994Z" fill="black"/>
</svg>
