<svg width="70" height="70" viewBox="0 0 70 70" fill="none" xmlns="http://www.w3.org/2000/svg">
<rect width="70" height="70" rx="31" fill="#94D6FF"/>
<mask id="mask0_9_1257" style="mask-type:alpha" maskUnits="userSpaceOnUse" x="0" y="0" width="70" height="70">
<circle cx="34.8852" cy="34.8852" r="34.8852" fill="#D9D9D9"/>
</mask>
<g mask="url(#mask0_9_1257)">
<path d="M54.0099 63.6864C53.8498 63.8008 53.6668 63.9152 53.5067 64.0296C53.3237 64.144 53.1635 64.2583 52.9805 64.3498C52.8204 64.4413 52.6832 64.5328 52.523 64.6244C52.5001 64.6472 52.4773 64.6472 52.4544 64.6701C51.9282 64.9904 51.3792 65.2878 50.8302 65.5623C50.6701 65.6538 50.4871 65.7453 50.3269 65.8139C50.3269 65.8139 50.3041 65.8368 50.2812 65.8368C50.0982 65.9283 49.9152 66.0198 49.7322 66.1113C49.3662 66.2943 48.9773 66.4544 48.6113 66.6145C48.4282 66.7061 48.2224 66.7747 48.0394 66.8433C47.8563 66.9119 47.6505 67.0034 47.4675 67.0721C47.2845 67.1407 47.0786 67.2322 46.8956 67.3008C46.8956 67.3008 46.8956 67.3008 46.8727 67.3008C46.6897 67.3695 46.4838 67.4381 46.3008 67.5067C45.889 67.644 45.4544 67.7812 45.0426 67.9185C44.9054 67.9642 44.7452 68.01 44.608 68.0557C44.1733 68.193 43.7387 68.3074 43.3041 68.3989C43.1439 68.4446 42.9838 68.4675 42.8008 68.5132C42.389 68.6047 41.9544 68.6962 41.5426 68.7878C41.4511 68.8106 41.3825 68.8106 41.291 68.8335C41.1537 68.8564 40.9936 68.8793 40.8564 68.9021C40.6505 68.925 40.4675 68.9708 40.2616 68.9936C40.1701 69.0165 40.0786 69.0165 39.9871 69.0394C39.8727 69.0623 39.7354 69.0851 39.5982 69.0851C39.2322 69.1309 38.8433 69.1766 38.4773 69.2224C38.3629 69.2453 38.2256 69.2453 38.1113 69.2681H38.0884C37.9282 69.291 37.7681 69.291 37.608 69.3139C37.4479 69.3368 37.2877 69.3368 37.1276 69.3368C37.0361 69.3368 36.9217 69.3596 36.8302 69.3596C36.6472 69.3596 36.4871 69.3825 36.3269 69.3825C36.0982 69.3825 35.8923 69.4054 35.6635 69.4054C35.4348 69.4054 35.2289 69.4054 35.0001 69.4054C34.84 69.4054 34.6799 69.4054 34.5198 69.4054C24.8662 69.2681 16.1962 65.1734 9.99688 58.6766C9.99688 58.6766 9.99687 58.6538 9.974 58.6538C9.28772 58.0361 9.8825 54.742 12.6505 52.6603C16.1276 50.0296 24.4544 48.3825 24.4544 48.3825C24.4544 48.3825 27.6799 47.8564 39.6439 50.3498C46.6439 51.8139 51.974 53.9413 54.9479 59.7061C55.5655 60.8956 56.1832 62.7257 54.0099 63.6864Z" fill="white"/>
<path d="M39.7125 50.0981C44.1047 50.9903 48.7942 51.9511 52.4086 54.8563C53.621 55.84 54.4217 57.2812 55.0851 58.6766C55.4053 59.3629 55.7256 60.072 55.9772 60.8269C56.1145 61.3302 56.3204 61.9021 56.206 62.4968C56.1831 62.657 56.0458 62.8629 55.9315 62.9772C55.4053 63.5034 54.8334 63.8236 54.2615 64.2354C50.8988 66.5687 47.0328 68.2158 43.0295 69.0851C34.1079 71.0295 24.4543 69.5197 16.6079 64.8302C14.0001 63.2517 11.5981 61.3302 9.53931 59.0655C9.31055 58.791 9.31055 58.3334 9.31055 58.0361C9.33342 57.3498 9.51643 56.6864 9.74519 56.0687C10.2942 54.6504 11.0034 53.2321 12.2158 52.2485C13.0851 51.6537 14.023 51.1504 14.9837 50.7387C18.0034 49.4576 21.1831 48.5655 24.4543 48.1995C24.7288 48.1766 24.7746 48.5655 24.5001 48.6112C21.3661 49.2517 18.255 50.2125 15.3498 51.5164C14.2975 52.0426 13.1766 52.5001 12.3302 53.3236C11.5295 54.1929 10.9576 55.2681 10.5001 56.3661C10.2027 57.0295 9.99682 58.0818 10.0883 58.608C11.5295 60.3236 13.2223 61.8334 15.0524 63.1374C25.072 70.1374 40.2844 70.5949 50.9445 64.7615C51.9053 64.2354 52.8432 63.6406 53.7354 63.023C54.17 62.7256 54.6275 62.474 54.9707 62.1308C54.9936 62.108 54.9707 62.1308 54.9707 62.1537C54.9707 62.1766 54.9478 62.1995 54.9478 62.1995C54.9707 61.9249 54.8792 61.5589 54.7648 61.1929C54.353 59.8661 53.6896 58.4707 52.9805 57.2583C51.8596 55.4511 49.9609 54.3073 48.0393 53.3923C46.7125 52.7746 45.3171 52.2942 43.8988 51.8367C42.4805 51.3792 41.0393 50.9903 39.5981 50.6472C39.2321 50.5557 39.3465 50.0295 39.7125 50.0981Z" fill="black"/>
<path d="M54.01 63.6862C53.8499 63.8006 53.6669 63.915 53.5067 64.0293C53.3237 64.1437 53.1636 64.2581 52.9806 64.3496C52.8205 64.4411 52.6832 64.5326 52.5231 64.6241C52.5002 64.647 52.4773 64.647 52.4545 64.6699C51.9283 64.9901 51.3793 65.2875 50.8303 65.562C50.6701 65.6535 50.4871 65.745 50.327 65.8137C50.327 65.8137 50.3041 65.8365 50.2813 65.8365C50.0983 65.928 49.9152 66.0195 49.7322 66.111C49.3662 66.294 48.9773 66.4542 48.6113 66.6143C48.4283 66.7058 48.2224 66.7744 48.0394 66.8431C47.8564 66.9117 47.6505 67.0032 47.4675 67.0718C47.2845 67.1404 47.0786 67.232 46.8956 67.3006C46.8956 67.3006 46.8956 67.3006 46.8728 67.3006C46.6898 67.3692 46.4839 67.4378 46.3009 67.5065C45.8891 67.6437 45.4545 67.781 45.0427 67.9182C44.9054 67.964 44.7453 68.0097 44.6081 68.0555C44.1734 68.1927 43.7388 68.3071 43.3041 68.3986C43.144 68.4444 42.9839 68.4672 42.8009 68.513C42.3891 68.6045 41.9545 68.696 41.5427 68.7875C41.4512 68.8104 41.3826 68.8104 41.2911 68.8333C41.1538 68.8561 40.9937 68.879 40.8564 68.9019C40.6505 68.9248 40.4675 68.9705 40.2617 68.9934C40.1701 69.0163 40.0786 69.0163 39.9871 69.0391C39.8728 69.062 39.7355 69.0849 39.5983 69.0849C39.2322 69.1306 38.8433 69.1764 38.4773 69.2221C38.363 69.245 38.2257 69.245 38.1113 69.2679H38.0884C37.9283 69.2908 37.7682 69.2908 37.6081 69.3137C37.4479 69.3365 37.2878 69.3365 37.1277 69.3365C37.0362 69.3365 36.9218 69.3594 36.8303 69.3594C36.6473 69.3594 36.4871 69.3823 36.327 69.3823C36.0983 69.3823 35.8924 69.4052 35.6636 69.4052C35.4349 69.4052 35.229 69.4052 35.0002 69.4052C34.8401 69.4052 34.6799 69.4052 34.5198 69.4052C24.8662 69.2679 16.1963 65.1731 9.99695 58.6764C9.99695 58.6764 9.99694 58.6535 9.97407 58.6535C9.28779 58.3104 9.76819 54.3986 12.5362 52.3169C16.0133 49.6862 24.4545 48.3823 24.4545 48.3823C24.4545 48.3823 27.68 47.8561 39.644 50.3496C46.0492 51.6764 51.9969 53.781 54.1701 57.4411C54.7649 58.4476 56.2061 60.415 55.9545 61.9019C55.8172 62.7025 54.6963 63.0686 54.01 63.6862Z" fill="white"/>
<path d="M39.7126 50.098C43.9675 51.013 48.9544 51.8137 52.4544 54.5817C54.6962 56.366 55.4282 59.2026 56.5034 61.7647C56.5949 61.9248 56.5034 62.0849 56.4348 62.2222C55.8171 63.183 54.8106 63.8235 53.8956 64.464C51.2191 66.2712 48.2224 67.6438 45.1341 68.5359C34.7943 71.5326 23.1047 69.6568 14.3433 63.366C12.5818 62.1078 10.9577 60.6666 9.51648 59.0653L9.63086 59.1568C9.26484 58.9052 9.17334 58.4477 9.17334 58.0588C9.28772 56.4575 9.99687 54.9934 10.706 53.5751C10.9348 53.1634 11.1864 52.7058 11.5524 52.3856C14.9152 49.2973 20.4511 48.1078 24.8661 47.696C25.1407 47.6732 25.1635 48.0621 24.9119 48.1078C20.8171 48.8627 16.5622 49.8235 13.0851 52.2026C12.6276 52.5686 12.0786 52.9346 11.7583 53.4379C11.2322 54.2614 9.37922 57.83 10.0655 58.5621C14.8465 64.2581 22.0295 67.5294 29.3269 68.3987C36.5099 69.3594 44.0818 68.3758 50.5099 64.9673C51.425 64.4869 52.3171 63.9607 53.1635 63.366C53.9413 62.8398 54.7191 62.3366 55.3139 61.6274L55.291 61.6732L55.2681 62.0849C55.1995 61.2385 54.7648 60.415 54.4903 59.6143C54.1701 58.8137 53.8269 57.9673 53.4152 57.2353C52.5916 55.7483 51.1733 54.696 49.6864 53.8954C48.1537 53.0719 46.4838 52.4771 44.7681 51.9738C43.0524 51.4705 41.3367 51.0359 39.5753 50.647C39.2322 50.5555 39.3465 50.0294 39.7126 50.098Z" fill="black"/>
<path d="M13.0164 51.8136C13.0164 51.8136 14.1601 51.9509 15.7386 52.9117C18.6896 54.7189 23.3105 65.9509 15.2582 72.6764C15.2582 72.6764 13.817 81.0947 15.2582 82.696C15.2582 82.696 41.6111 84.0228 52.9804 82.696C52.9804 82.696 54.4902 77.7548 53.7582 72.4705C52.8432 65.7679 53.1177 58.7221 48.7026 52.7058C46.6896 49.9607 36.6013 47.5816 30.768 47.6274C24.866 47.696 22.4183 48.3136 20.8628 48.7025C19.2843 49.1143 13.1307 50.6012 13.0164 51.8136Z" fill="black" stroke="black" stroke-width="5.1257" stroke-miterlimit="10" stroke-linecap="round" stroke-linejoin="round"/>
<path d="M13.7026 52.7286C16.4706 50.1894 16.1503 52.3397 21.3432 51.4933C23.3334 51.173 25.6896 49.526 28.732 49.5946C30.9281 49.6404 33.3072 51.2874 36.1209 51.6534C38.3856 51.9508 41.085 50.9214 43.7843 51.4704C46.049 51.9508 48.1536 53.941 50.7615 54.6502" stroke="white" stroke-width="4" stroke-miterlimit="10" stroke-linecap="round" stroke-linejoin="round"/>
<path d="M13.9087 55.7711C17.1571 53.8266 16.5394 55.8626 21.6865 55.1534C23.7224 54.8789 26.1473 53.1861 29.1669 53.209C31.4087 53.2318 33.8335 54.856 36.6701 55.1305C38.9806 55.3593 41.6799 54.2384 44.4022 54.6959C46.7355 55.1077 48.9087 57.075 51.5394 57.6926" stroke="white" stroke-width="4" stroke-miterlimit="10" stroke-linecap="round" stroke-linejoin="round"/>
<path d="M14.1145 58.8365C17.6831 57.4182 16.9054 59.3397 22.0067 58.7907C24.1112 58.5619 26.5818 56.8691 29.6014 56.8691C31.889 56.8691 34.3825 58.4704 37.2191 58.6992C39.5753 58.8822 42.2975 57.6469 45.0197 58.0358C47.3988 58.3789 49.6635 60.3005 52.34 60.8267" stroke="white" stroke-width="4" stroke-miterlimit="10" stroke-linecap="round" stroke-linejoin="round"/>
<path d="M14.3203 61.9476C18.0948 61.0097 17.2255 62.8169 22.2811 62.4051C24.4314 62.2221 26.9706 60.5522 29.9902 60.5293C32.3465 60.5064 34.9085 62.1077 37.7451 62.2679C40.17 62.4051 42.8693 61.0554 45.6373 61.3528C48.085 61.6045 50.4641 63.4803 53.1634 63.9149" stroke="white" stroke-width="4" stroke-miterlimit="10" stroke-linecap="round" stroke-linejoin="round"/>
<path d="M14.4805 65.0587C18.3922 64.5096 17.4543 66.2253 22.5099 65.9737C24.7288 65.8593 27.3367 64.1894 30.3792 64.1665C32.7811 64.1436 35.4118 65.7678 38.2713 65.8593C40.7419 65.9508 43.4641 64.5096 46.255 64.6926C48.7713 64.8756 51.2648 66.6828 53.987 66.9802" stroke="white" stroke-width="4" stroke-miterlimit="10" stroke-linecap="round" stroke-linejoin="round"/>
<path d="M14.6404 68.1697C18.6436 67.941 17.6829 69.6109 22.7384 69.4965C25.026 69.4508 27.7025 67.8037 30.745 67.8037C33.2155 67.8037 35.892 69.4279 38.7744 69.4736C41.3136 69.5194 44.0587 67.9867 46.8495 68.0782C49.4345 68.1697 52.0423 69.9083 54.8103 70.0684" stroke="white" stroke-width="4" stroke-miterlimit="10" stroke-linecap="round" stroke-linejoin="round"/>
<path d="M14.8008 71.3037C18.8956 71.3495 17.889 72.9736 22.9446 72.9965C25.2779 73.0194 28.0688 71.3952 31.1341 71.4181C33.6733 71.441 36.4184 73.088 39.3008 73.088C41.9315 73.1109 44.6766 71.4867 47.4675 71.4867C50.1439 71.4867 52.889 73.1338 55.6341 73.1338" stroke="white" stroke-width="4" stroke-miterlimit="10" stroke-linecap="round" stroke-linejoin="round"/>
<path d="M41.8625 56.1832C41.3821 58.5394 38.2709 59.9577 33.0324 57.8302C27.5879 55.6342 25.2317 50.3956 24.637 48.84C27.8625 42.8008 25.6206 38.6145 25.6206 38.6145C33.0553 37.974 39.552 46.6668 39.552 46.6668L40.5585 50.9675C40.65 51.3335 40.833 51.6538 41.1075 51.8825C41.5879 52.7289 42.1598 54.6734 41.8625 56.1832Z" fill="white"/>
<path d="M24.5228 48.9087C24.9574 48.2453 25.2319 47.4676 25.4149 46.7127C25.7581 45.1342 25.8724 43.5329 25.8953 41.9316V41.3368C25.8267 40.7421 25.6208 40.1244 25.392 39.5754C25.0947 38.8434 26.1698 38.3859 26.513 39.1179C26.5587 39.2094 26.5587 39.3695 26.5587 39.461C26.6273 42.5721 26.7646 46.5754 24.7973 49.1604C24.66 49.2976 24.3855 49.0917 24.5228 48.9087Z" fill="black"/>
<path d="M39.8038 46.6211C40.1469 46.827 40.2613 47.1015 40.307 47.376C40.4443 47.925 40.3985 48.5198 40.5358 49.0917C40.6502 49.6407 40.9933 50.1668 41.0848 50.7387C41.1992 51.3335 41.5423 52.5917 41.6796 53.2093C41.7253 53.3466 41.6338 53.5067 41.4737 53.5296C41.3822 53.5525 41.3136 53.5296 41.2449 53.4838C40.9475 53.2322 40.8103 52.9806 40.6273 52.6603C40.3299 52.1113 40.124 51.608 39.941 50.9904C39.7809 50.4414 39.8495 49.8466 39.7123 49.2747C39.5979 48.7257 39.2776 48.1995 39.1632 47.6276C39.0946 47.3531 39.0717 47.0557 39.2776 46.7126C39.4149 46.5753 39.6436 46.5296 39.8038 46.6211Z" fill="black"/>
<path d="M41.4509 52.6603C37.0816 52.4315 33.513 51.059 30.0359 44.8596C32.964 47.4446 36.4182 48.4282 40.0555 48.8858L40.5359 50.9903C40.6274 51.3563 41.1764 52.4315 41.4509 52.6603Z" fill="black"/>
<path d="M41.268 51.814C42.0458 53.278 42.5033 55.1081 42.0229 56.7323C41.6569 57.8761 40.6046 58.7225 39.4609 59.0427C36.8073 59.7519 33.7419 58.631 31.3857 57.3728C28.4805 55.7486 26.3301 53.0264 24.9576 50.0525C24.8661 49.8238 25.1863 49.6408 25.3236 49.8695C25.804 50.8303 26.353 51.7682 26.9707 52.6146C27.5883 53.4839 28.2975 54.2846 29.0981 54.9937C31.4314 57.0983 34.5883 58.4022 37.7452 58.4022C40.9935 58.3107 42.2288 56.595 41.4739 53.4382C41.3596 52.9349 41.1765 52.4087 40.9249 51.9741C40.7877 51.7911 41.1308 51.5852 41.268 51.814Z" fill="black"/>
<path d="M50.121 24.34C50.5328 26.2616 50.7387 27.8172 49.6177 32.9413C48.5197 38.0426 51.1962 39.0949 44.8596 47.2616C42.2746 50.6015 36.0066 49.6636 30.9282 46.2093C29.2125 45.0426 28.4805 42.0459 27.1994 39.9185C26.1929 38.2485 25.7354 39.9871 24.4086 38.5459C22.6014 36.5786 20.4282 32.6211 21.5034 25.6211C23.2419 14.2747 32.2321 12.9479 38.889 14.206C45.5916 15.4871 49.023 19.2845 50.121 24.34Z" fill="white"/>
<path d="M25.5523 40.5818C25.0261 39.6897 24.3399 38.9119 23.6993 38.0884C23.0817 37.242 22.5784 36.304 22.1667 35.3433C19.4444 28.6635 20.4967 19.2616 27.1765 15.3269C29.9444 13.7256 33.2843 13.3367 36.3954 13.5884C43.0523 14.0688 49.1601 17.1341 50.6013 24.1799C51.3791 27.291 50.3268 30.4936 49.732 33.5361C49.4575 35.0459 49.6863 36.6014 49.6634 38.157C49.6405 39.7354 49.2059 41.3139 48.6111 42.7779C48.2451 43.7844 47.6046 44.6766 46.9412 45.5001C45.8431 46.8269 44.7451 48.1766 43.3497 49.206C43.0294 49.4348 42.4575 49.5491 42.0686 49.5949C40.9935 49.755 39.9412 49.8008 38.866 49.7322C34.6569 49.5491 30.1503 47.5132 28.4575 43.4413C28.3889 43.2812 28.6176 43.1668 28.7091 43.304C30.9052 46.7812 34.9314 48.4969 38.9346 48.7256C40.1699 48.7942 41.4281 48.7714 42.6405 48.5197C43.2353 48.2224 43.7614 47.6962 44.2647 47.2158C45.5 45.9805 46.7582 44.6537 47.6503 43.1439C48.7255 41.108 49.3203 38.889 49.1373 36.5786C49.0915 35.5491 49.0686 34.474 49.2745 33.4446C49.4575 32.4152 49.6863 31.4315 49.8235 30.3792C49.9608 29.3727 50.0294 28.3433 50.0294 27.3367C49.915 24.3857 48.9542 21.3433 47.0784 19.0557C42.9379 13.9086 33.1471 12.5589 27.634 16.0818C24.1569 18.2322 22.5327 22.2583 22.0065 26.1701C21.2059 30.8596 21.4346 35.4805 25.1634 38.889L26.2614 40.0328C26.6961 40.5361 25.9183 41.1308 25.5523 40.5818Z" fill="black"/>
<path d="M28.2515 33.3073C28.2515 33.3073 27.5424 29.876 24.2025 30.2877C21.3202 30.6537 20.3136 37.5622 26.8561 39.4838" fill="white"/>
<path d="M26.5588 36.487C26.0326 36.1897 25.6666 35.6864 25.6437 35.0687C25.6666 34.6112 25.7352 34.0851 25.6208 33.6276C25.5522 33.1929 25.0947 33.0785 24.7516 33.1014C24.3856 33.17 24.1568 33.6276 24.0882 33.9936C24.0882 34.0165 24.0653 34.0851 24.0653 34.108C24.0424 34.2223 23.8594 34.2223 23.8137 34.108C23.5163 33.2158 24.1797 32.2321 25.1405 32.3465C26.4901 32.438 26.6731 33.8563 26.4215 34.9315C26.2842 35.389 26.4673 35.8008 26.7189 36.1897L26.7646 36.2583C26.879 36.3955 26.696 36.5785 26.5588 36.487Z" fill="black"/>
<path d="M44.8595 30.8824C45.2026 32.5066 45.8431 34.0164 46.6438 35.4347C47.3529 37.1733 45.5229 38.8203 43.8987 38.7517C43.7157 38.7517 43.6928 38.5001 43.8529 38.4543C44.8823 38.1341 45.8203 37.4478 45.9804 36.3955C46.049 36.0752 45.9575 35.8007 45.7974 35.5262C45.0425 34.1079 44.585 32.4837 44.6993 30.8824C44.6993 30.768 44.8595 30.768 44.8595 30.8824Z" fill="black"/>
<path d="M28.1371 33.3301C27.611 31.9804 26.4672 30.6994 24.9345 30.7222C24.7973 30.6994 24.5685 30.7451 24.4313 30.7451C24.0424 30.768 23.7221 30.9052 23.4247 31.1797C21.9607 32.6438 22.2123 35.2288 23.4019 36.853C23.8136 37.4248 24.3398 37.9281 24.9345 38.3399C25.5293 38.7516 26.1927 39.0719 26.9019 39.3464C27.062 39.3922 26.9934 39.6438 26.8332 39.6209C25.3005 39.3007 23.8365 38.5458 22.83 37.2876C21.2744 35.4118 20.9541 32.2778 22.8071 30.4477C23.2188 30.0817 23.7907 29.8072 24.3626 29.8072C24.5456 29.8072 24.8202 29.7614 25.0032 29.8072C25.9639 29.853 26.879 30.3333 27.4737 31.0882C27.9999 31.7288 28.2973 32.5065 28.3888 33.2843C28.3888 33.4216 28.1829 33.4673 28.1371 33.3301Z" fill="black"/>
<path d="M42.5948 40.9476C42.6176 41.3136 42.3431 41.9541 41.8399 42.4116C39.2549 40.8332 38.0882 41.6567 38.0882 41.6567C37.1732 40.2613 37.3791 38.3626 39.598 39.8038C41.1307 40.8103 42.0915 40.9705 42.5948 40.9476Z" fill="black"/>
<path d="M41.8168 42.4345C41.2678 42.9149 40.4443 43.2123 39.3234 42.7547C38.7972 42.5489 38.3854 42.1371 38.0652 41.6796C38.0881 41.6796 39.2319 40.8561 41.8168 42.4345Z" fill="white"/>
<path d="M43.0293 40.879C43.0293 40.879 42.0685 41.4052 39.5979 39.8267C36.647 37.928 37.2417 41.9084 39.3234 42.7548C41.4966 43.647 42.6176 41.7025 42.5947 40.9705" stroke="black" stroke-width="3" stroke-miterlimit="10" stroke-linecap="round" stroke-linejoin="round"/>
<path d="M38.0881 41.6796C38.0881 41.6796 39.2548 40.8561 41.8398 42.4345" stroke="black" stroke-width="3" stroke-miterlimit="10" stroke-linecap="round" stroke-linejoin="round"/>
<path d="M39.6893 28.4574C40.1926 28.5261 40.5815 27.9999 40.3985 27.4967C40.307 27.2222 40.1469 26.9705 39.8952 26.8104C39.1174 26.33 36.2122 26.2842 34.6795 27.3823C33.307 28.3888 37.4018 28.1372 39.6893 28.4574Z" fill="black"/>
<path d="M46.0259 28.7092C45.6142 28.7092 45.3625 28.1831 45.5684 27.7484C45.6828 27.5197 45.8429 27.3138 46.0717 27.1994C46.7808 26.8563 48.6795 27.0621 49.5259 28.2288C50.2808 29.2582 47.9246 28.6863 46.0259 28.7092Z" fill="black"/>
<path d="M38.843 31.4085C37.6763 30.9052 36.3496 31.0424 35.1371 31.317C34.9999 31.3627 34.9084 31.1797 35.0228 31.0882C36.075 30.2189 38.0652 30.1045 38.9116 31.2941C38.9803 31.3398 38.9345 31.4313 38.843 31.4085Z" fill="black"/>
<path d="M47.833 31.8889C47.284 31.5 46.4833 31.5686 45.8428 31.6372C45.6141 31.6601 45.3853 31.7058 45.1337 31.7745C45.065 31.7974 44.9964 31.683 45.0422 31.6372L45.0879 31.5915C45.6598 30.9967 46.552 30.8594 47.3297 31.1568C47.6043 31.2712 47.8788 31.4313 48.016 31.7516C48.0846 31.866 47.9245 31.9804 47.833 31.8889Z" fill="black"/>
<path d="M51.9517 28.1601C52.9811 24.6373 51.1968 22.1896 49.9158 21C49.321 19.3987 48.3145 17.8203 46.7132 16.6079C46.3929 16.3562 46.0498 16.1275 45.6609 15.9216C45.3406 15.7386 44.9975 15.5784 44.6543 15.4183C41.6347 14.1144 36.8079 12.5817 32.0269 13.4052C30.1968 13.7026 28.3668 14.366 26.6511 15.4869C26.6282 15.4869 26.6282 15.5098 26.6282 15.5098C26.4909 15.6013 26.3537 15.6928 26.2393 15.7843C25.919 15.3954 25.553 15.0523 25.1413 14.732C22.2818 12.5817 19.1707 12.9477 17.0203 15.8301C14.87 18.6896 14.504 22.9673 17.3635 25.1177C18.2556 25.7811 19.2622 26.1928 20.2916 26.353C20.2687 26.4673 20.2687 26.6046 20.2458 26.719C18.9877 37.9967 27.6119 43.0752 26.9485 39.5294C26.7654 39.4608 26.6739 39.3922 26.6739 39.3464C20.3373 37.3334 21.3439 30.5621 24.2034 30.1961C25.2328 30.0588 25.9877 30.3105 26.5824 30.6765C26.8112 30.9052 27.0171 31.1111 27.223 31.317C27.772 32.0033 28.2524 32.8726 28.2524 33.2157C28.2753 32.9412 28.2981 32.6209 28.3668 32.3007C31.1347 34.3595 33.6282 33.6275 38.1576 26.3987C41.1543 21.6177 42.9387 20.6798 43.9223 20.817C44.3112 20.9543 44.6772 21.2517 45.0203 21.7549C45.1119 21.8922 45.2034 22.0294 45.272 22.1667C47.2851 22.1209 48.223 23.2876 48.7034 24.5C48.7034 24.5 48.7034 24.5 48.7034 24.5229C49.0922 25.5523 49.138 26.6046 49.1838 26.8791C49.1838 26.9249 49.1837 26.9477 49.2066 26.9477C49.1609 27.8628 49.0465 29.4183 49.0236 31.4314C49.0236 32.3464 49.1151 34.1765 49.0465 35.2288C49.0236 35.549 49.0007 35.8693 48.9779 36.1667C48.955 36.3268 48.955 36.4869 48.9321 36.6242C48.9092 36.7615 48.9092 36.9216 48.8864 37.0817C48.8635 37.2647 48.8406 37.4249 48.8406 37.6079C49.2981 38.1569 49.9615 38.2484 50.5105 38.6144C50.6478 37.0588 50.236 35.7549 50.0759 33.9935C50.2132 34.5883 50.3962 35.1602 50.6707 35.7549C51.5857 37.7222 51.0824 39.1634 51.0824 39.1634L52.5922 39.2549C52.7524 38.8203 52.8896 38.0196 52.4092 36.9673C51.6772 35.3432 51.6315 34.5883 51.6315 34.5883C51.6315 34.5883 52.0203 35.9151 52.7524 36.8072C53.3243 37.5392 53.553 38.5229 53.3243 39.3007L53.8733 39.3464C55.5204 36.8758 50.419 33.353 51.9517 28.1601ZM33.2851 30.1503C31.5465 31.4085 30.0824 31.1569 29.1903 30.768C29.2132 30.768 29.236 30.7451 29.236 30.7451C29.7851 30.6994 30.3341 30.585 30.8602 30.3791C33.3766 29.4869 35.7099 27.1765 37.7687 25.049C36.0302 27.1994 34.3602 29.3726 33.2851 30.1503Z" fill="black"/>
<path d="M65.9282 19.2844C79.8138 46.0263 55.4053 76.1995 26.3073 68.8334C13.2452 65.5851 2.74521 54.2616 0.572004 40.9707C-1.89858 27.7485 4.072 13.5426 15.2354 6.06221C30.5393 -4.46067 51.7452 -0.960668 62.7027 14.0916C62.7714 14.1602 62.7485 14.2746 62.657 14.3433C62.5883 14.4119 62.474 14.389 62.4053 14.2975C60.8955 12.3531 59.1798 10.5916 57.304 9.01319C54.2158 6.38247 50.6014 4.32365 46.7812 2.92822C27.3367 -4.11753 5.99357 7.59489 1.73867 27.9315C-3.06525 50.7158 16.3106 71.6929 39.4151 68.5589C57.2354 66.3171 70.4805 49.8694 69.0164 31.9805C68.6962 27.657 67.5524 23.3792 65.6537 19.4446C65.6079 19.3759 65.6537 19.2844 65.7223 19.2387C65.791 19.1929 65.8825 19.2158 65.9282 19.2844Z" fill="black"/>
</g>
</svg>
