<svg width="72" height="71" viewBox="0 0 72 71" fill="none" xmlns="http://www.w3.org/2000/svg">
<g filter="url(#filter0_d_9_1157)">
<rect width="70" height="70" rx="30" transform="matrix(-1 0 0 1 71 0)" fill="white" shape-rendering="crispEdges"/>
<mask id="mask0_9_1157" style="mask-type:alpha" maskUnits="userSpaceOnUse" x="1" y="0" width="70" height="70">
<circle cx="34.8852" cy="34.8852" r="34.8852" transform="matrix(-1 0 0 1 71 0)" fill="#D9D9D9"/>
</mask>
<g mask="url(#mask0_9_1157)">
<path d="M16.9901 63.6864C17.1502 63.8008 17.3332 63.9152 17.4933 64.0296C17.6763 64.144 17.8365 64.2583 18.0195 64.3498C18.1796 64.4413 18.3168 64.5328 18.477 64.6244C18.4999 64.6472 18.5227 64.6472 18.5456 64.6701C19.0718 64.9904 19.6208 65.2878 20.1698 65.5623C20.3299 65.6538 20.5129 65.7453 20.6731 65.8139C20.6731 65.8139 20.6959 65.8368 20.7188 65.8368C20.9018 65.9283 21.0848 66.0198 21.2678 66.1113C21.6338 66.2943 22.0227 66.4544 22.3887 66.6145C22.5718 66.7061 22.7776 66.7747 22.9606 66.8433C23.1437 66.9119 23.3495 67.0034 23.5325 67.0721C23.7155 67.1407 23.9214 67.2322 24.1044 67.3008C24.1044 67.3008 24.1044 67.3008 24.1273 67.3008C24.3103 67.3695 24.5162 67.4381 24.6992 67.5067C25.111 67.644 25.5456 67.7812 25.9574 67.9185C26.0946 67.9642 26.2548 68.01 26.392 68.0557C26.8267 68.193 27.2613 68.3074 27.6959 68.3989C27.8561 68.4446 28.0162 68.4675 28.1992 68.5132C28.611 68.6047 29.0456 68.6962 29.4574 68.7878C29.5489 68.8106 29.6175 68.8106 29.709 68.8335C29.8463 68.8564 30.0064 68.8793 30.1436 68.9021C30.3495 68.925 30.5325 68.9708 30.7384 68.9936C30.8299 69.0165 30.9214 69.0165 31.0129 69.0394C31.1273 69.0623 31.2646 69.0851 31.4018 69.0851C31.7678 69.1309 32.1567 69.1766 32.5227 69.2224C32.6371 69.2453 32.7744 69.2453 32.8887 69.2681H32.9116C33.0718 69.291 33.2319 69.291 33.392 69.3139C33.5521 69.3368 33.7123 69.3368 33.8724 69.3368C33.9639 69.3368 34.0783 69.3596 34.1698 69.3596C34.3528 69.3596 34.5129 69.3825 34.6731 69.3825C34.9018 69.3825 35.1077 69.4054 35.3365 69.4054C35.5652 69.4054 35.7711 69.4054 35.9999 69.4054C36.16 69.4054 36.3201 69.4054 36.4802 69.4054C46.1338 69.2681 54.8038 65.1734 61.0031 58.6766C61.0031 58.6766 61.0031 58.6538 61.026 58.6538C61.7123 58.0361 61.1175 54.742 58.3495 52.6603C54.8724 50.0296 46.5456 48.3825 46.5456 48.3825C46.5456 48.3825 43.3201 47.8564 31.3561 50.3498C24.3561 51.8139 19.026 53.9413 16.0521 59.7061C15.4345 60.8956 14.8168 62.7257 16.9901 63.6864Z" fill="white"/>
<path d="M31.2875 50.0981C26.8953 50.9903 22.2058 51.9511 18.5914 54.8563C17.379 55.84 16.5783 57.2812 15.9149 58.6766C15.5947 59.3629 15.2744 60.072 15.0228 60.8269C14.8855 61.3302 14.6796 61.9021 14.794 62.4968C14.8169 62.657 14.9542 62.8629 15.0685 62.9772C15.5947 63.5034 16.1666 63.8236 16.7385 64.2354C20.1012 66.5687 23.9672 68.2158 27.9705 69.0851C36.8921 71.0295 46.5457 69.5197 54.3921 64.8302C56.9999 63.2517 59.4019 61.3302 61.4607 59.0655C61.6895 58.791 61.6895 58.3334 61.6895 58.0361C61.6666 57.3498 61.4836 56.6864 61.2548 56.0687C60.7058 54.6504 59.9966 53.2321 58.7842 52.2485C57.9149 51.6537 56.977 51.1504 56.0163 50.7387C52.9966 49.4576 49.8169 48.5655 46.5457 48.1995C46.2712 48.1766 46.2254 48.5655 46.4999 48.6112C49.6339 49.2517 52.745 50.2125 55.6502 51.5164C56.7025 52.0426 57.8234 52.5001 58.6698 53.3236C59.4705 54.1929 60.0424 55.2681 60.4999 56.3661C60.7973 57.0295 61.0032 58.0818 60.9117 58.608C59.4705 60.3236 57.7777 61.8334 55.9476 63.1374C45.928 70.1374 30.7156 70.5949 20.0555 64.7616C19.0947 64.2354 18.1568 63.6406 17.2646 63.023C16.83 62.7256 16.3725 62.474 16.0293 62.1308C16.0064 62.108 16.0293 62.1308 16.0293 62.1537C16.0293 62.1766 16.0522 62.1995 16.0522 62.1995C16.0293 61.9249 16.1208 61.5589 16.2352 61.1929C16.647 59.8661 17.3104 58.4707 18.0195 57.2583C19.1404 55.4511 21.0391 54.3073 22.9607 53.3923C24.2875 52.7746 25.6829 52.2942 27.1012 51.8367C28.5195 51.3792 29.9607 50.9903 31.4019 50.6472C31.7679 50.5557 31.6535 50.0295 31.2875 50.0981Z" fill="black"/>
<path d="M50.6177 48.1765C50.6177 48.1765 47.2778 46.8497 46.6602 46.804L46.6144 47.3301C46.6144 47.3301 49.268 48.4739 49.4281 48.6569C49.5654 48.817 50.6177 48.1765 50.6177 48.1765Z" fill="#7E5D6D"/>
<path d="M9.39584 77.8694H67.2488C67.2488 77.8694 65.739 67.1407 62.239 59.5916C59.6083 53.8727 54.4841 50.2126 49.8632 48.5655C48.5592 48.108 47.5527 47.6047 46.6148 47.3531C46.6148 47.3988 42.4056 46.6668 38.9971 47.0557C33.6671 47.6505 28.2226 49.4577 28.154 49.4348C25.203 50.2126 21.5886 52.4086 16.3501 56.8008C10.4481 61.742 9.39584 77.8694 9.39584 77.8694Z" fill="white"/>
<mask id="mask1_9_1157" style="mask-type:alpha" maskUnits="userSpaceOnUse" x="9" y="46" width="59" height="32">
<path d="M9.3956 77.8694H67.2485C67.2485 77.8694 65.7387 67.1407 62.2387 59.5916C59.608 53.8727 54.4838 50.2126 49.8629 48.5655C48.559 48.108 47.5525 47.6047 46.6145 47.3531C46.6145 47.3988 42.4054 46.6668 38.9969 47.0557C33.6668 47.6505 28.2224 49.4577 28.1538 49.4348C25.2028 50.2126 21.5884 52.4086 16.3498 56.8008C10.4479 61.742 9.3956 77.8694 9.3956 77.8694Z" fill="white"/>
</mask>
<g mask="url(#mask1_9_1157)">
<path d="M55.353 46.8269C54.0949 46.8726 53.4543 46.8955 52.1962 46.8726C51.0753 47.536 50.5262 47.8563 49.3824 48.4739C48.2158 48.4053 47.621 48.3596 46.4543 48.2223C45.2877 48.7713 44.7158 49.0458 43.5491 49.572C42.3596 49.389 41.7648 49.2746 40.5981 49.0458C39.4086 49.5033 38.7909 49.7092 37.6014 50.0981C36.4119 49.8007 35.8171 49.6177 34.6275 49.2746C33.3922 49.5948 32.7746 49.755 31.5393 50.0295C30.3498 49.5948 29.755 49.389 28.5654 48.9086C27.3073 49.1145 26.6668 49.206 25.4086 49.3661C24.2419 48.8171 23.6471 48.5426 22.4805 47.9478C21.1994 48.0164 20.5589 48.0393 19.2779 48.0622C18.1341 47.3759 17.5622 47.0328 16.4184 46.3236C14.9772 46.2092 14.2681 46.1406 12.8269 45.9805C12.9413 46.5295 12.987 46.804 13.0785 47.353C14.2681 47.4903 14.8857 47.5589 16.0752 47.6504C17.2419 48.3824 17.8138 48.7484 19.0034 49.4347C20.3073 49.4347 20.9478 49.4118 22.2517 49.3432C23.4413 49.938 24.036 50.2354 25.2256 50.7844C26.5066 50.6243 27.1471 50.5328 28.4282 50.3498C29.6177 50.8301 30.2354 51.0589 31.4249 51.4707C32.6831 51.1962 33.3007 51.036 34.536 50.7158C35.7256 51.0589 36.3432 51.2419 37.5328 51.5393C38.7452 51.1275 39.3628 50.9216 40.5752 50.4641C41.7648 50.6929 42.3596 50.8073 43.572 50.9903C44.7615 50.4641 45.3334 50.2125 46.523 49.6406C47.7125 49.755 48.3073 49.8007 49.4739 49.8694C50.6177 49.2517 51.1896 48.9314 52.3105 48.2452C53.3628 48.2452 53.889 48.2452 54.9413 48.1994C55.1014 47.6733 55.1929 47.3988 55.353 46.8269Z" fill="black"/>
<path d="M55.6731 52.6376C54.4149 52.6605 53.7973 52.6605 52.5162 52.6147C51.3724 53.2553 50.8005 53.5526 49.6568 54.1474C48.4901 54.0559 47.9182 53.9873 46.7515 53.8272C45.5849 54.3533 44.9901 54.6049 43.8005 55.0853C42.6339 54.8794 42.062 54.7422 40.8724 54.4905C39.66 54.9023 39.0424 55.1082 37.83 55.4742C36.6633 55.1311 36.0685 54.9709 34.9019 54.5821C33.6666 54.8794 33.026 55.0167 31.7907 55.2683C30.6241 54.8108 30.0522 54.5821 28.8855 54.0788C27.6045 54.2618 26.9868 54.3304 25.7058 54.4448C24.562 53.8729 23.9901 53.5755 22.8463 52.9579C21.5653 53.0036 20.9019 53.0036 19.6208 52.9807C18.4999 52.2945 17.9509 51.9285 16.83 51.1964C15.3888 51.0592 14.6568 50.9906 13.2156 50.7847C13.3071 51.3337 13.33 51.6082 13.4215 52.1343C14.6339 52.2945 15.2287 52.3631 16.4182 52.4775C17.562 53.2324 18.111 53.5984 19.2548 54.3075C20.5587 54.3304 21.2221 54.3304 22.526 54.2847C23.6927 54.9023 24.2646 55.1997 25.4313 55.7945C26.7123 55.6801 27.3757 55.6115 28.6568 55.4285C29.8234 55.9317 30.4182 56.1605 31.6077 56.618C32.8659 56.3664 33.5064 56.2291 34.7646 55.9317C35.9541 56.3206 36.526 56.4807 37.7156 56.8239C38.9509 56.4579 39.5685 56.252 40.7809 55.8402C41.9705 56.0919 42.5424 56.2291 43.7319 56.435C44.9215 55.9546 45.5391 55.703 46.7287 55.1539C47.8953 55.2912 48.4901 55.3598 49.6568 55.4742C50.8234 54.8794 51.3953 54.5592 52.5391 53.9187C53.5914 53.9415 54.1175 53.9644 55.147 53.9415C55.3757 53.4383 55.4672 53.1638 55.6731 52.6376Z" fill="black"/>
<path d="M55.9937 58.3563C54.7584 58.3335 54.1178 58.3106 52.8597 58.2648C51.7159 58.8825 51.1211 59.1799 49.9544 59.7289C48.8106 59.5916 48.2387 59.523 47.095 59.34C45.9054 59.8433 45.3106 60.072 44.0982 60.5295C42.9544 60.2779 42.3825 60.1635 41.2159 59.8661C39.9806 60.255 39.3629 60.438 38.1276 60.7812C36.9838 60.4152 36.412 60.2321 35.2682 59.8433C34.01 60.1178 33.3695 60.2321 32.1113 60.4609C30.9675 59.9805 30.3956 59.7518 29.2747 59.2256C27.9937 59.3629 27.3531 59.4315 26.0721 59.523C24.9512 58.9282 24.3793 58.6308 23.2812 57.9903C21.9773 57.9903 21.3368 57.9903 20.0329 57.9446C18.9348 57.2354 18.3858 56.8694 17.3106 56.1374C15.8695 55.9772 15.1374 55.8857 13.6963 55.657C13.7649 56.1831 13.7878 56.4576 13.8335 57.0067C15.0459 57.1897 15.6407 57.2812 16.8531 57.4184C17.9512 58.1733 18.5231 58.5622 19.6211 59.2714C20.9479 59.3171 21.6113 59.34 22.9152 59.3171C24.059 59.9576 24.608 60.255 25.7518 60.8727C27.0557 60.7812 27.6963 60.7354 29.0002 60.5753C30.144 61.1014 30.7159 61.3531 31.8825 61.8335C33.1636 61.6276 33.8041 61.4903 35.0623 61.2158C36.2289 61.6276 36.8008 61.8106 37.9675 62.1766C39.2257 61.8335 39.8433 61.6504 41.0786 61.2616C42.2453 61.5589 42.8172 61.6962 43.9838 61.925C45.1963 61.4674 45.8139 61.2158 47.0035 60.7125C48.1701 60.8955 48.742 60.9642 49.9087 61.1014C51.0982 60.5295 51.6701 60.2321 52.8368 59.6145C53.8662 59.6603 54.3923 59.6831 55.4218 59.706C55.6734 59.1799 55.7649 58.9054 55.9937 58.3563Z" fill="black"/>
<path d="M56.3367 64.0524C55.1014 64.0066 54.4837 63.9609 53.2484 63.8694C52.0818 64.4641 51.487 64.7386 50.2975 65.2648C49.1765 65.1046 48.6046 65.0131 47.4609 64.8073C46.2484 65.2877 45.6308 65.5164 44.4184 65.9282C43.2975 65.6537 42.7256 65.5164 41.5818 65.1962C40.3465 65.5622 39.706 65.7223 38.4707 66.0197C37.3497 65.6308 36.7778 65.4249 35.6569 65.0131C34.3759 65.2419 33.7582 65.3563 32.4772 65.5393C31.3563 65.036 30.8073 64.7844 29.6863 64.2582C28.3824 64.3726 27.7419 64.4184 26.438 64.487C25.3399 63.8922 24.7909 63.572 23.6929 62.9314C22.389 62.9086 21.7256 62.8857 20.4216 62.8171C19.3465 62.1079 18.8203 61.7419 17.768 60.987C16.304 60.804 15.572 60.6896 14.1308 60.438C14.1765 60.9641 14.1765 61.2386 14.2223 61.7648C15.4347 61.9707 16.0295 62.0622 17.2419 62.2223C18.3171 63.0001 18.8661 63.3661 19.9412 64.0981C21.268 64.1667 21.9314 64.1896 23.2582 64.2125C24.3563 64.8759 24.9282 65.1962 26.0262 65.7909C27.3301 65.7223 27.9935 65.6994 29.2975 65.585C30.4184 66.1341 30.9903 66.3857 32.1112 66.889C33.4151 66.706 34.0556 66.5916 35.3367 66.3628C36.4805 66.7975 37.0524 67.0033 38.1961 67.3922C39.4543 67.0948 40.0948 66.9118 41.353 66.5687C42.4968 66.889 43.0687 67.0262 44.2125 67.3007C45.4478 66.8661 46.0654 66.6602 47.3007 66.1798C48.4445 66.3857 49.0164 66.4772 50.1602 66.6373C51.3726 66.0883 51.9674 65.8138 53.1341 65.219C54.1635 65.3105 54.6667 65.3334 55.6961 65.3792C55.9478 64.853 56.085 64.5785 56.3367 64.0524Z" fill="black"/>
<path d="M56.657 69.6798C55.4446 69.5883 54.8269 69.5425 53.5916 69.4053C52.4021 69.9543 51.8073 70.2288 50.5949 70.7321C49.474 70.5491 48.925 70.4347 47.804 70.2059C46.5687 70.6406 45.9511 70.8693 44.7158 71.2582C43.5949 70.9608 43.0459 70.8007 41.9478 70.4576C40.6897 70.7778 40.0491 70.9379 38.791 71.2125C37.6929 70.8007 37.1439 70.5948 36.023 70.1373C34.742 70.3432 34.1014 70.4347 32.7975 70.5948C31.6995 70.0687 31.1733 69.817 30.0753 69.268C28.7714 69.3595 28.108 69.3824 26.804 69.4281C25.7289 68.8105 25.2027 68.4902 24.1276 67.8268C22.8008 67.7811 22.1602 67.7582 20.8335 67.6667C19.804 66.9347 19.2779 66.5687 18.2485 65.8138C16.7844 65.6079 16.0524 65.4935 14.5884 65.219C14.6112 65.7451 14.6112 65.9968 14.6341 66.5229C15.8465 66.7517 16.4413 66.8432 17.6537 67.0262C18.706 67.804 19.2321 68.1928 20.2844 68.9249C21.6112 69.0393 22.2975 69.0621 23.6243 69.1079C24.6995 69.7713 25.2485 70.1144 26.3236 70.7321C27.6504 70.7092 28.3138 70.6863 29.6406 70.5948C30.7387 71.1667 31.2877 71.4183 32.3857 71.9445C33.6897 71.7844 34.3531 71.6928 35.657 71.487C36.7779 71.9445 37.3269 72.1504 38.4478 72.5621C39.7289 72.2876 40.3694 72.1275 41.6504 71.8072C42.7714 72.1504 43.3433 72.3105 44.4642 72.6079C45.7223 72.219 46.34 72.0131 47.5982 71.5556C48.7191 71.7843 49.291 71.8987 50.4119 72.0817C51.6243 71.5785 52.242 71.304 53.4544 70.7549C54.4609 70.8693 54.9642 70.9151 55.9707 70.9837C56.2452 70.4804 56.3825 70.2059 56.657 69.6798Z" fill="black"/>
</g>
<path d="M8.96108 78.2583C26.1408 78.304 50.2977 78.487 67.2258 78.4413C67.5689 78.4413 67.8663 78.121 67.7977 77.7779C66.9742 72.8596 65.8304 68.0328 64.1833 63.3204C62.4676 58.2877 60.0657 54.3988 55.6506 51.2877C53.6147 49.8236 51.3271 48.7942 48.9938 47.9707C48.2389 47.6733 47.4611 47.353 46.6376 47.1243L46.4088 47.2844V47.2615C46.4088 47.1472 46.6376 47.0785 46.5689 47.1014V47.0785C46.546 47.0328 46.5003 47.0099 46.4774 46.9642C46.2258 46.6896 45.8598 46.5981 45.4938 46.5753C45.1049 46.5295 44.716 46.4838 44.3042 46.438C42.7258 46.255 41.1245 46.2093 39.5232 46.3694C37.9219 46.5524 36.3892 46.8498 34.8336 47.1929C32.5918 47.6962 30.3729 48.4282 28.1768 49.0916L28.1081 49.1145H28.0853C28.0853 49.1145 28.0624 49.1145 28.0853 49.1145C28.0853 49.1145 28.1081 49.1145 28.131 49.1145C28.1539 49.1145 28.1768 49.1145 28.1996 49.1374H28.0395C25.0199 49.938 22.4121 51.6766 19.8957 53.4838C18.6604 54.3988 17.448 55.3367 16.2585 56.3204C15.0232 57.2811 14.0624 58.6079 13.3075 59.9805C11.8206 62.7027 10.9055 65.6994 10.1964 68.6962C9.55586 71.5099 9.09834 74.3694 8.80095 77.2289L8.77808 77.5262L8.7552 77.6635V77.7321C8.80095 77.938 8.86958 78.1439 8.96108 78.2583ZM9.83037 77.4576C9.92187 77.5491 10.0134 77.7321 9.99049 77.8465V77.8236V77.755V77.6177C10.3794 73.2027 11.1114 68.7877 12.484 64.5785C13.4219 61.8334 14.6343 58.9282 16.9219 57.0753C19.2323 55.1537 21.6343 53.255 24.2421 51.7452C25.5461 51.0132 26.8957 50.3498 28.2911 49.9838L27.948 49.9609C27.9938 50.0066 28.1996 50.0066 28.2225 49.9838C29.5722 49.7093 31.4251 49.0001 32.7519 48.5655C34.6049 47.9478 36.5264 47.6276 38.4709 47.4674C40.3925 47.2844 42.314 47.4445 44.2127 47.6504C44.6016 47.6962 44.9905 47.7191 45.3565 47.7648C45.7683 47.8563 46.2029 47.8334 46.5689 47.5361C46.5689 47.5361 46.5689 47.5361 46.5918 47.5361H46.6147C46.5689 47.5589 46.7977 47.4903 46.7748 47.3759V47.353L46.5461 47.5132C47.3238 47.7191 48.0559 48.0851 48.8336 48.3825C49.5885 48.7027 50.3663 48.9543 51.1212 49.2975C54.0722 50.6243 56.7715 52.5916 58.899 55.0622C61.0722 57.5099 62.3532 60.5295 63.3827 63.6177C64.9153 68.2615 65.9676 73.1112 66.6539 77.938L67.2258 77.2746C50.6408 77.2975 26.667 77.3661 9.83037 77.4576Z" fill="black"/>
<path d="M55.9249 77.8693L56.9543 69.3823" stroke="#544D4D" stroke-width="0.175" stroke-miterlimit="10" stroke-linecap="round" stroke-linejoin="round"/>
<path d="M15.9609 66.5C15.9609 66.5 16.6472 68.1699 16.4413 69.8399C16.2354 71.5098 15.6407 73.9575 16.4871 77.8693" stroke="#544D4D" stroke-width="0.175" stroke-miterlimit="10" stroke-linecap="round" stroke-linejoin="round"/>
<path d="M50.6178 48.1763C50.1831 48.0391 49.4282 48.1763 49.1995 48.5652C48.3073 50.0293 46.157 54.3071 45.2648 62.794C44.5557 69.428 45.6308 81.3692 45.6308 81.3692L67.8433 80.3169C67.8433 80.3169 65.5328 72.0816 63.5884 64.5326C62.5361 60.4607 62.1929 54.5816 59.2877 52.4084C56.9544 50.6698 54.0491 49.3659 50.6178 48.1763Z" fill="black"/>
<path d="M27.6045 49.5719C27.6045 49.5719 20.5359 62.8627 22.5947 80.6144H7.33652C7.33652 80.6144 7.88554 78.6699 9.80711 70.5033C11.4999 63.366 13.2156 57.2353 14.9999 55.5654C19.6666 51.1732 26.2777 49 26.2777 49C26.2777 49 27.0326 49.366 27.6045 49.5719Z" fill="black"/>
<path d="M27.6048 49.5718L28.1538 49.4117C28.1538 49.4117 27.3532 49.0228 27.01 48.7941L26.8041 48.6797C26.8041 48.6797 25.7061 49.183 25.3172 49.366C24.9283 49.549 26.6669 50.3954 26.6669 50.3954C26.6669 50.3954 27.5362 49.5947 27.6048 49.5718Z" fill="#7E5D6D"/>
<path d="M45.5163 60.6666C45.5163 60.6666 46.2941 58.4477 48.0556 56.4803C49.6797 54.6503 52.6536 51.8137 52.8595 51.1732C52.9967 50.7385 52.8137 49.9379 52.402 48.9999C51.5327 47.0098 49.5882 44.4019 47.0261 43.2352C40.8039 41.0392 39.8431 44.9509 39.7516 46.1862C39.7288 46.5294 46.5686 48.0163 46.5458 48.3594V48.3823C46.5458 48.3823 47.598 48.7254 46.8431 53.964C46.6601 55.245 45.8595 57.4869 45.5163 60.6666Z" fill="white"/>
<path d="M45.4477 61.0098C45.6079 61.0327 45.8137 60.9183 45.8595 60.7582L45.8824 60.7124L45.9052 60.6438C46.3856 59.4314 47.049 58.2876 47.8497 57.2582C49.4739 55.2451 51.4869 53.6209 53.0425 51.5392C53.0883 51.4706 53.134 51.402 53.1569 51.3105C53.3628 50.6013 53.0654 49.8464 52.8366 49.2059C51.7157 46.5523 49.7713 44.1732 47.1405 42.9379C46.4771 42.7091 45.768 42.5033 45.0588 42.3889C43.6405 42.1373 41.9935 42.2059 40.8268 43.1895C39.9347 43.9444 39.4771 45.0425 39.3628 46.1863C39.3399 46.415 39.5686 46.5752 39.7288 46.6667C41.7647 47.4444 44.1438 47.8105 46.1798 48.5654C46.2026 48.5882 46.2484 48.5882 46.2484 48.6111C46.2484 48.6111 46.2484 48.6111 46.2026 48.5654C46.1798 48.5196 46.134 48.451 46.134 48.3824C46.134 48.3366 46.134 48.4052 46.134 48.4052L46.3628 48.7255C46.3399 48.7255 46.317 48.7026 46.317 48.7026C46.317 48.7026 46.3399 48.7255 46.3399 48.7484C46.5458 49.0686 46.5915 49.4804 46.6373 49.8693C46.7059 50.6242 46.683 51.402 46.6144 52.1569L46.5458 52.9346C46.4085 54.5131 45.9281 55.9542 45.6079 57.5098C45.4477 58.2876 45.3105 59.0654 45.1961 59.8431C45.1732 60.0033 45.1503 60.2091 45.1503 60.3922C45.2418 60.598 45.3562 60.8039 45.4477 61.0098ZM45.585 60.3235C45.6536 60.232 45.7909 60.1634 45.8824 60.1634C45.9052 60.1634 45.9281 60.1405 45.9281 60.1176L45.951 59.9346C46.2026 57.8529 46.8889 55.8856 47.232 53.781C47.2778 53.3922 47.3693 52.5915 47.4151 52.2026C47.4837 50.9902 47.6209 49.6863 47.1177 48.5196C47.0033 48.3137 46.9347 48.1536 46.6602 48.0392L46.9118 48.3824C46.9118 48.3595 46.9118 48.3366 46.9118 48.3366C46.9118 48.1993 46.7745 48.0392 46.683 47.9706C46.0654 47.6503 45.402 47.5131 44.7386 47.3072C43.2745 46.8725 41.3987 46.4837 40.0033 45.9346C40.0033 45.9346 40.0033 45.9346 40.049 45.9804L40.0719 46.0033C40.0948 46.0261 40.1177 46.0719 40.1177 46.1176C40.1177 46.1405 40.1177 46.1863 40.1177 46.1863C40.1863 45.2484 40.5981 44.2647 41.3301 43.6699C42.3366 42.8235 43.732 42.8007 44.9902 43.0065C45.6079 43.098 46.4085 43.3497 46.9118 43.5098C48.5588 44.2418 49.9543 45.5 51.0523 46.9412C51.853 48.0392 52.6079 49.2745 52.7909 50.6242C52.8824 51.1046 52.5392 51.4248 52.2647 51.768C51.2124 52.9804 49.5196 54.6274 48.3987 55.7941C47.0948 57.1209 45.9968 58.6993 45.2647 60.3922L45.2418 60.4379C45.2418 60.3693 45.4477 60.2778 45.585 60.3235Z" fill="black"/>
<path d="M23.6015 61.376C23.6015 61.376 25.1342 55.4283 25.8891 53.5296C26.644 51.6538 28.0623 49.5263 28.1309 49.4119C30.3041 45.8891 30.2355 44.3564 29.5263 43.7387C28.8172 43.1211 27.1015 43.2355 23.9446 46.0035C23.3728 46.644 19.9643 50.4871 19.5982 52.5917C19.3924 53.7583 20.0329 54.5819 20.9022 55.7943C21.7943 57.0296 22.8924 58.6538 23.6015 61.376Z" fill="white"/>
<path d="M23.6013 61.3759C24.3791 58.8596 25.0883 56.2746 26.0262 53.804C26.6209 52.3628 27.4673 51.0132 28.3366 49.7092C29.183 48.3138 30.0752 46.8726 30.3039 45.2256C30.5098 43.67 29.3889 42.7779 27.902 43.1668C26.2778 43.6014 24.9739 44.6994 23.7386 45.7517C22.732 46.8726 21.7713 48.0164 20.902 49.2746C19.8497 50.8988 18.5 52.7975 19.8039 54.6733C20.3987 55.6112 21.1536 56.4576 21.7484 57.3955C22.549 58.6308 23.1667 59.9576 23.6013 61.3759ZM23.6013 61.0328C23.6471 60.9184 23.7157 60.8955 23.7615 60.8269C23.6928 60.621 23.6242 60.4151 23.5556 60.2321C20.6732 52.8203 16.1896 54.9478 24.219 46.255C25.2255 45.4086 26.6438 44.2419 28.0621 43.8759C29.0915 43.6243 29.732 44.0818 29.5948 45.157C29.183 47.7648 27.2386 49.8007 26.1405 52.1341C25.1569 54.0556 24.6765 56.1602 24.0817 58.219C23.9445 58.7223 23.5784 60.0491 23.4641 60.5295C23.4183 60.6896 23.3268 61.0328 23.2811 61.2158V61.2387C23.3268 61.1014 23.5098 61.0099 23.6013 61.0328Z" fill="black"/>
<path d="M29.1373 56.1832C29.6177 58.5394 32.7288 59.9577 37.9674 57.8302C43.4118 55.6342 45.768 50.3956 46.3628 48.84C43.1373 42.8008 45.3791 38.6145 45.3791 38.6145C37.9445 37.974 31.4478 46.6668 31.4478 46.6668L30.4412 50.9675C30.3497 51.3335 30.1667 51.6538 29.8922 51.8825C29.4118 52.7289 28.8399 54.6734 29.1373 56.1832Z" fill="white"/>
<path d="M46.477 48.9087C46.0424 48.2453 45.7678 47.4676 45.5848 46.7127C45.2417 45.1342 45.1273 43.5329 45.1044 41.9316V41.3368C45.1731 40.7421 45.379 40.1244 45.6077 39.5754C45.9051 38.8434 44.8299 38.3859 44.4868 39.1179C44.441 39.2094 44.441 39.3695 44.441 39.461C44.3724 42.5721 44.2352 46.5754 46.2025 49.1604C46.3397 49.2976 46.6143 49.0917 46.477 48.9087Z" fill="black"/>
<path d="M31.196 46.6211C30.8529 46.827 30.7385 47.1015 30.6927 47.376C30.5555 47.925 30.6012 48.5198 30.464 49.0917C30.3496 49.6407 30.0065 50.1668 29.915 50.7387C29.8006 51.3335 29.4574 52.5917 29.3202 53.2093C29.2744 53.3466 29.3659 53.5067 29.5261 53.5296C29.6176 53.5525 29.6862 53.5296 29.7548 53.4838C30.0522 53.2322 30.1895 52.9806 30.3725 52.6603C30.6699 52.1113 30.8757 51.608 31.0587 50.9904C31.2189 50.4414 31.1502 49.8466 31.2875 49.2747C31.4019 48.7257 31.7221 48.1995 31.8365 47.6276C31.9052 47.3531 31.928 47.0557 31.7221 46.7126C31.5849 46.5753 31.3561 46.5296 31.196 46.6211Z" fill="black"/>
<path d="M29.5488 52.6603C33.9181 52.4315 37.4867 51.059 40.9639 44.8596C38.0358 47.4446 34.5815 48.4282 30.9443 48.8858L30.4639 50.9903C30.3724 51.3563 29.8233 52.4315 29.5488 52.6603Z" fill="black"/>
<path d="M29.7317 51.814C28.9539 53.278 28.4964 55.1081 28.9768 56.7323C29.3428 57.8761 30.3951 58.7225 31.5389 59.0427C34.1925 59.7519 37.2579 58.631 39.6141 57.3728C42.5193 55.7486 44.6696 53.0264 46.0422 50.0525C46.1337 49.8238 45.8134 49.6408 45.6762 49.8695C45.1958 50.8303 44.6467 51.7682 44.0291 52.6146C43.4114 53.4839 42.7023 54.2846 41.9016 54.9937C39.5683 57.0983 36.4114 58.4022 33.2546 58.4022C30.0062 58.3107 28.7709 56.595 29.5258 53.4382C29.6402 52.9349 29.8232 52.4087 30.0748 51.9741C30.2121 51.7911 29.869 51.5852 29.7317 51.814Z" fill="black"/>
<path d="M20.879 24.34C20.4672 26.2616 20.2613 27.8172 21.3823 32.9413C22.4803 38.0426 19.8038 39.0949 26.1404 47.2616C28.7254 50.6015 34.9934 49.6636 40.0718 46.2093C41.7875 45.0426 42.5195 42.0459 43.8006 39.9185C44.8071 38.2485 45.2646 39.9871 46.5914 38.5459C48.3986 36.5786 50.5718 32.6211 49.4966 25.6211C47.7581 14.2747 38.7679 12.9479 32.111 14.206C25.4084 15.4871 21.977 19.2845 20.879 24.34Z" fill="white"/>
<path d="M45.4477 40.5818C45.9739 39.6897 46.6601 38.9119 47.3007 38.0884C47.9183 37.242 48.4216 36.304 48.8333 35.3433C51.5556 28.6635 50.5033 19.2616 43.8235 15.3269C41.0556 13.7256 37.7157 13.3367 34.6046 13.5884C27.9477 14.0688 21.8399 17.1341 20.3987 24.1799C19.6209 27.291 20.6732 30.4936 21.268 33.5361C21.5425 35.0459 21.3137 36.6014 21.3366 38.157C21.3595 39.7354 21.7941 41.3139 22.3889 42.7779C22.7549 43.7844 23.3954 44.6766 24.0588 45.5001C25.1569 46.8269 26.2549 48.1766 27.6503 49.206C27.9706 49.4348 28.5425 49.5491 28.9314 49.5949C30.0065 49.755 31.0588 49.8008 32.134 49.7322C36.3431 49.5491 40.8497 47.5132 42.5425 43.4413C42.6111 43.2812 42.3824 43.1668 42.2909 43.304C40.0948 46.7812 36.0686 48.4969 32.0654 48.7256C30.8301 48.7942 29.5719 48.7714 28.3595 48.5197C27.7647 48.2224 27.2386 47.6962 26.7353 47.2158C25.5 45.9805 24.2418 44.6537 23.3497 43.1439C22.2745 41.108 21.6797 38.889 21.8627 36.5786C21.9085 35.5491 21.9314 34.474 21.7255 33.4446C21.5425 32.4152 21.3137 31.4315 21.1765 30.3792C21.0392 29.3727 20.9706 28.3433 20.9706 27.3367C21.085 24.3857 22.0458 21.3433 23.9216 19.0557C28.0621 13.9086 37.8529 12.5589 43.366 16.0818C46.8431 18.2322 48.4673 22.2583 48.9935 26.1701C49.7941 30.8596 49.5654 35.4805 45.8366 38.889L44.7386 40.0328C44.3039 40.5361 45.0817 41.1308 45.4477 40.5818Z" fill="black"/>
<path d="M42.7485 33.3073C42.7485 33.3073 43.4576 29.876 46.7975 30.2877C49.6798 30.6537 50.6864 37.5622 44.1439 39.4838" fill="white"/>
<path d="M44.4412 36.487C44.9674 36.1897 45.3334 35.6864 45.3563 35.0687C45.3334 34.6112 45.2648 34.0851 45.3792 33.6276C45.4478 33.1929 45.9053 33.0785 46.2484 33.1014C46.6144 33.17 46.8432 33.6276 46.9118 33.9936C46.9118 34.0165 46.9347 34.0851 46.9347 34.108C46.9576 34.2223 47.1406 34.2223 47.1863 34.108C47.4837 33.2158 46.8203 32.2321 45.8595 32.3465C44.5099 32.438 44.3269 33.8563 44.5785 34.9315C44.7158 35.389 44.5327 35.8008 44.2811 36.1897L44.2354 36.2583C44.121 36.3955 44.304 36.5785 44.4412 36.487Z" fill="black"/>
<path d="M26.1405 30.8824C25.7974 32.5066 25.1569 34.0164 24.3562 35.4347C23.6471 37.1733 25.4771 38.8203 27.1013 38.7517C27.2843 38.7517 27.3072 38.5001 27.1471 38.4543C26.1177 38.1341 25.1797 37.4478 25.0196 36.3955C24.951 36.0752 25.0425 35.8007 25.2026 35.5262C25.9575 34.1079 26.415 32.4837 26.3007 30.8824C26.3007 30.768 26.1405 30.768 26.1405 30.8824Z" fill="black"/>
<path d="M42.8629 33.3303C43.389 31.9806 44.5328 30.6996 46.0655 30.7225C46.2027 30.6996 46.4315 30.7454 46.5687 30.7454C46.9576 30.7682 47.2779 30.9055 47.5753 31.18C49.0393 32.644 48.7877 35.229 47.5981 36.8532C47.1864 37.4251 46.6602 37.9284 46.0655 38.3401C45.4707 38.7519 44.8073 39.0722 44.0981 39.3467C43.938 39.3924 44.0066 39.644 44.1668 39.6212C45.6995 39.3009 47.1635 38.546 48.17 37.2878C49.7256 35.412 50.0459 32.278 48.1929 30.448C47.7812 30.082 47.2093 29.8074 46.6374 29.8074C46.4544 29.8074 46.1798 29.7617 45.9968 29.8074C45.0361 29.8532 44.121 30.3336 43.5263 31.0885C43.0001 31.729 42.7027 32.5068 42.6112 33.2846C42.6112 33.4218 42.8171 33.4676 42.8629 33.3303Z" fill="black"/>
<path d="M27.8791 41.0392C29.3432 42.4346 32.1112 41.3137 32.8432 39.6209C32.9347 39.415 32.7059 39.232 32.5229 39.3235C32.134 39.5294 31.7909 39.7353 31.4249 39.8954C30.3726 40.3758 29.2746 40.7647 28.1079 40.6503C27.8791 40.6046 27.719 40.8791 27.8791 41.0392Z" fill="black"/>
<path d="M34.673 33.2156C35.2221 33.1928 35.6338 32.7352 35.5881 32.1862L35.5652 31.5457C35.5423 30.9967 35.0848 30.5849 34.5358 30.6307C33.9868 30.6535 33.575 31.1111 33.6208 31.6601L33.6436 32.3006C33.6665 32.8267 34.124 33.2385 34.673 33.2156Z" fill="black"/>
<path d="M25.0426 33.5589C25.5459 33.536 25.9348 33.1013 25.9119 32.5981L25.889 32.0033C25.8661 31.5 25.4315 31.1111 24.9282 31.134C24.425 31.1569 24.0361 31.5915 24.0589 32.0948L24.0818 32.6896C24.1047 33.1928 24.5393 33.5817 25.0426 33.5589Z" fill="black"/>
<path d="M32.6143 31.9804C33.3692 31.4771 34.1927 31.1339 35.1077 31.317C35.4051 31.3627 35.7025 31.4542 35.8855 31.6601C35.9541 31.7516 36.1143 31.7287 36.1143 31.5915C36.0914 31.134 35.7025 30.8366 35.3365 30.6536C34.6273 30.2875 33.6437 30.3562 33.0031 30.8366C32.7744 30.9738 31.9966 31.8202 32.4084 32.0032C32.4999 32.049 32.5456 32.0261 32.6143 31.9804Z" fill="black"/>
<path d="M26.0718 32.0947C26.0718 31.1339 24.8822 30.7908 24.1502 31.1339C23.7384 31.3169 23.4411 31.6829 23.3267 32.1176C23.2809 32.2548 23.4868 32.3692 23.5783 32.2548C23.9672 31.7973 24.6306 31.5686 25.1567 31.8431C25.3169 31.9346 25.3398 32.0032 25.3855 32.0947C25.3855 32.5522 26.0489 32.5293 26.0718 32.0947Z" fill="black"/>
<path d="M31.5163 28.2058C31.0359 28.366 30.5555 27.9313 30.647 27.4052C30.6928 27.1307 30.8072 26.8562 31.0359 26.6503C31.7222 26.0326 34.5588 25.4836 36.2745 26.2843C37.7843 27.0163 33.7124 27.4738 31.5163 28.2058Z" fill="black"/>
<path d="M24.6764 28.5718C25.0653 28.709 25.4771 28.2973 25.4085 27.8169C25.3856 27.5652 25.2941 27.3136 25.1111 27.1306C24.5621 26.5816 22.6862 26.1469 21.4967 26.9933C20.4673 27.7025 22.8921 27.9084 24.6764 28.5718Z" fill="black"/>
<path d="M19.0261 20.8397C17.4705 19.4901 15.183 17.4541 17.5392 14.6175C19.8954 11.7809 24.2418 12.879 24.2418 12.879C24.2418 12.879 23.3267 10.2711 25.866 9.33321C28.9313 8.2123 37.6241 11.5979 37.6241 11.5979C38.2647 11.575 38.8823 11.5522 39.4542 11.5522C46.9575 11.392 49.1307 16.1273 49.2222 20.3822C49.2222 20.3822 51.7614 21.2286 52.4019 25.2777C52.6078 26.5816 52.8137 28.2515 52.3104 30.2646C50.9607 35.7548 47.3235 39.575 45.013 41.5195C44.1437 40.879 45.6764 39.9868 45.562 38.9345C50.5261 36.5097 49.4509 30.6306 46.7973 30.2875C44.7614 30.0358 43.6862 31.2254 43.183 32.1862C42.9771 32.4607 45.7222 17.1567 29.8921 22.1665C26.7581 23.1502 23.5326 24.0195 21.3366 22.4411C21.0849 22.9214 20.9248 23.4933 20.879 24.3397C20.879 24.3397 17.0588 22.8528 17.6307 21.2973C17.8137 20.7711 19.0261 20.8397 19.0261 20.8397Z" fill="black"/>
<path d="M24.8137 36.1667C24.8137 36.1667 24.5392 37.7223 22.732 38.5001C22.2745 38.6831 21.7941 38.3857 21.7941 37.8824C21.817 37.8824 24.6993 36.3498 24.8137 36.1667Z" fill="black"/>
<path d="M38.9509 36.1668C38.9509 36.1668 38.1045 38.0884 35.5653 38.5459C33.0261 39.0263 30.7156 37.1962 29.6405 34.1309C29.6405 34.1309 30.5098 36.9675 33.9869 37.4936C37.4182 38.0655 38.9509 36.1668 38.9509 36.1668Z" fill="black"/>
<path d="M29.1373 31.889C29.2059 35.1602 31.8367 37.7909 35.0164 37.7909C38.1961 37.7909 40.7354 35.1602 40.7354 31.889C40.7125 28.5949 38.0818 25.8955 34.8563 25.8955C31.6308 25.8955 29.0458 28.5949 29.1373 31.889Z" stroke="black" stroke-width="0.175" stroke-miterlimit="10" stroke-linecap="round" stroke-linejoin="round"/>
<path d="M26.0034 31.134C25.6374 28.183 23.7158 25.8726 21.4511 25.8726C19.0034 25.8726 17.1276 28.5719 17.2649 31.866C17.4021 35.1373 19.4609 37.768 21.8629 37.768C22.7551 37.768 23.5557 37.4248 24.2191 36.8072" stroke="black" stroke-width="0.175" stroke-miterlimit="10" stroke-linecap="round" stroke-linejoin="round"/>
<path d="M40.6667 31.2483H43.915" stroke="black" stroke-width="0.175" stroke-miterlimit="10" stroke-linecap="round" stroke-linejoin="round"/>
<path d="M29.1145 31.2484C29.1145 31.2484 26.3923 30.1962 26.0491 31.2484" stroke="black" stroke-width="0.175" stroke-miterlimit="10" stroke-linecap="round" stroke-linejoin="round"/>
<path d="M5.07178 19.2844C-8.81384 46.0263 15.5947 76.1995 44.6927 68.8335C57.7548 65.5851 68.2548 54.2616 70.428 40.9707C72.8986 27.7485 66.928 13.5426 55.7646 6.06221C40.4607 -4.46067 19.2548 -0.960668 8.29727 14.0916C8.22864 14.1602 8.25152 14.2746 8.34303 14.3433C8.41165 14.4119 8.52603 14.389 8.59466 14.2975C10.1045 12.3531 11.8202 10.5916 13.696 9.01319C16.7842 6.38247 20.3986 4.32365 24.2188 2.92822C43.6633 -4.11753 65.0064 7.59489 69.2613 27.9315C74.0653 50.7158 54.6894 71.6929 31.5849 68.5589C13.7646 66.3171 0.519493 49.8694 1.98354 31.9805C2.3038 27.657 3.44759 23.3792 5.34629 19.4446C5.39204 19.3759 5.34629 19.2844 5.27766 19.2387C5.20904 19.1929 5.11753 19.2158 5.07178 19.2844Z" fill="black"/>
</g>
</g>
<defs>
<filter id="filter0_d_9_1157" x="0.766667" y="0" width="70.4667" height="70.4667" filterUnits="userSpaceOnUse" color-interpolation-filters="sRGB">
<feFlood flood-opacity="0" result="BackgroundImageFix"/>
<feColorMatrix in="SourceAlpha" type="matrix" values="0 0 0 0 0 0 0 0 0 0 0 0 0 0 0 0 0 0 127 0" result="hardAlpha"/>
<feOffset dy="0.233333"/>
<feGaussianBlur stdDeviation="0.116667"/>
<feComposite in2="hardAlpha" operator="out"/>
<feColorMatrix type="matrix" values="0 0 0 0 0 0 0 0 0 0 0 0 0 0 0 0 0 0 0.25 0"/>
<feBlend mode="normal" in2="BackgroundImageFix" result="effect1_dropShadow_9_1157"/>
<feBlend mode="normal" in="SourceGraphic" in2="effect1_dropShadow_9_1157" result="shape"/>
</filter>
</defs>
</svg>
