<svg width="55" height="55" viewBox="0 0 55 55" fill="none" xmlns="http://www.w3.org/2000/svg">
<path d="M14.9391 32.4084V31.5963L18.343 28.3118C18.6456 28.0251 18.8685 27.7743 19.0119 27.5593C19.1631 27.3364 19.2627 27.1333 19.3104 26.9502C19.3662 26.7591 19.3941 26.576 19.3941 26.4008C19.3941 25.9708 19.2428 25.6324 18.9402 25.3856C18.6376 25.1387 18.1957 25.0153 17.6144 25.0153C17.1686 25.0153 16.7664 25.091 16.4081 25.2423C16.0498 25.3856 15.7393 25.6125 15.4765 25.923L14.6644 25.2184C14.9829 24.8123 15.4089 24.5017 15.9423 24.2868C16.4838 24.0638 17.077 23.9523 17.7219 23.9523C18.3032 23.9523 18.8088 24.0479 19.2388 24.239C19.6688 24.4221 19.9992 24.6889 20.2301 25.0392C20.469 25.3896 20.5884 25.8036 20.5884 26.2813C20.5884 26.5521 20.5526 26.8188 20.4809 27.0816C20.4093 27.3443 20.2739 27.623 20.0748 27.9176C19.8758 28.2122 19.5891 28.5427 19.2149 28.909L16.1812 31.8352L15.8946 31.3693H20.9467V32.4084H14.9391ZM25.3329 32.504C24.68 32.504 24.0948 32.3368 23.5772 32.0024C23.0676 31.6679 22.6615 31.1822 22.359 30.5452C22.0644 29.9082 21.9171 29.1359 21.9171 28.2282C21.9171 27.3204 22.0644 26.5481 22.359 25.9111C22.6615 25.2741 23.0676 24.7884 23.5772 24.454C24.0948 24.1195 24.68 23.9523 25.3329 23.9523C25.9779 23.9523 26.5592 24.1195 27.0767 24.454C27.5943 24.7884 28.0004 25.2741 28.295 25.9111C28.5896 26.5481 28.7369 27.3204 28.7369 28.2282C28.7369 29.1359 28.5896 29.9082 28.295 30.5452C28.0004 31.1822 27.5943 31.6679 27.0767 32.0024C26.5592 32.3368 25.9779 32.504 25.3329 32.504ZM25.3329 31.441C25.7709 31.441 26.1531 31.3216 26.4795 31.0827C26.814 30.8438 27.0727 30.4855 27.2559 30.0078C27.447 29.53 27.5425 28.9368 27.5425 28.2282C27.5425 27.5195 27.447 26.9263 27.2559 26.4486C27.0727 25.9708 26.814 25.6125 26.4795 25.3736C26.1531 25.1348 25.7709 25.0153 25.3329 25.0153C24.895 25.0153 24.5088 25.1348 24.1744 25.3736C23.84 25.6125 23.5772 25.9708 23.3861 26.4486C23.203 26.9263 23.1114 27.5195 23.1114 28.2282C23.1114 28.9368 23.203 29.53 23.3861 30.0078C23.5772 30.4855 23.84 30.8438 24.1744 31.0827C24.5088 31.3216 24.895 31.441 25.3329 31.441ZM31.03 32.4084L36.7391 24.0479H37.6587L31.9496 32.4084H31.03ZM31.6988 28.5387C31.3166 28.5387 30.9782 28.4432 30.6836 28.2521C30.389 28.061 30.1581 27.7942 29.9909 27.4518C29.8316 27.1094 29.752 26.7113 29.752 26.2575C29.752 25.8036 29.8316 25.4055 29.9909 25.0631C30.1581 24.7207 30.389 24.454 30.6836 24.2629C30.9782 24.0718 31.3166 23.9762 31.6988 23.9762C32.089 23.9762 32.4274 24.0718 32.714 24.2629C33.0086 24.454 33.2356 24.7207 33.3948 25.0631C33.5541 25.4055 33.6337 25.8036 33.6337 26.2575C33.6337 26.7113 33.5541 27.1094 33.3948 27.4518C33.2356 27.7942 33.0086 28.061 32.714 28.2521C32.4274 28.4432 32.089 28.5387 31.6988 28.5387ZM31.6988 27.8579C32.0651 27.8579 32.3517 27.7186 32.5588 27.4399C32.7658 27.1532 32.8693 26.7591 32.8693 26.2575C32.8693 25.7558 32.7658 25.3657 32.5588 25.087C32.3517 24.8003 32.0651 24.657 31.6988 24.657C31.3405 24.657 31.0539 24.8003 30.8389 25.087C30.6319 25.3657 30.5283 25.7558 30.5283 26.2575C30.5283 26.7511 30.6319 27.1413 30.8389 27.4279C31.0539 27.7146 31.3405 27.8579 31.6988 27.8579ZM36.9899 32.4801C36.6077 32.4801 36.2693 32.3846 35.9747 32.1935C35.68 32.0024 35.4531 31.7356 35.2939 31.3932C35.1346 31.0509 35.055 30.6527 35.055 30.1989C35.055 29.745 35.1346 29.3469 35.2939 29.0045C35.4531 28.6621 35.68 28.3954 35.9747 28.2043C36.2693 28.0132 36.6077 27.9176 36.9899 27.9176C37.38 27.9176 37.7184 28.0132 38.0051 28.2043C38.2997 28.3954 38.5266 28.6621 38.6859 29.0045C38.8531 29.3469 38.9367 29.745 38.9367 30.1989C38.9367 30.6527 38.8531 31.0509 38.6859 31.3932C38.5266 31.7356 38.2997 32.0024 38.0051 32.1935C37.7184 32.3846 37.38 32.4801 36.9899 32.4801ZM36.9899 31.7993C37.3482 31.7993 37.6308 31.66 37.8379 31.3813C38.0529 31.0946 38.1603 30.7005 38.1603 30.1989C38.1603 29.7052 38.0529 29.315 37.8379 29.0284C37.6308 28.7417 37.3482 28.5984 36.9899 28.5984C36.6316 28.5984 36.3449 28.7417 36.1299 29.0284C35.9229 29.3071 35.8194 29.6972 35.8194 30.1989C35.8194 30.7005 35.9229 31.0946 36.1299 31.3813C36.3449 31.66 36.6316 31.7993 36.9899 31.7993Z" fill="black"/>
<path d="M54 27.5C54 32.4797 52.5969 37.3586 49.9515 41.5775C47.3062 45.7964 43.5256 49.1846 39.0432 51.3538C34.5608 53.5229 29.5579 54.3851 24.608 53.8417C19.658 53.2982 14.9614 51.3711 11.0563 48.2811L15.9894 42.0468C18.7229 44.2097 22.0106 45.5588 25.4756 45.9392C28.9405 46.3196 32.4425 45.716 35.5802 44.1976C38.7179 42.6792 41.3643 40.3075 43.2161 37.3542C45.0678 34.401 46.05 30.9858 46.05 27.5H54Z" fill="#A0C1E2" stroke="white" stroke-width="0.207031"/>
<path d="M11.1364 48.3442C7.99524 45.8783 5.45206 42.7343 3.69686 39.1473C1.94167 35.5603 1.01985 31.623 1.00032 27.6296C0.980779 23.6363 1.86402 19.6901 3.58403 16.0861C5.30405 12.4821 7.81635 9.31342 10.9332 6.81689L15.9032 13.0218C13.7214 14.7694 11.9628 16.9875 10.7588 19.5103C9.55481 22.0331 8.93654 24.7954 8.95022 27.5907C8.96389 30.3861 9.60916 33.1422 10.8378 35.6531C12.0664 38.164 13.8467 40.3648 16.0454 42.0909L11.1364 48.3442Z" fill="#E0E9F5" stroke="white" stroke-width="0.207031"/>
<path d="M10.9811 6.77881C14.8825 3.66872 19.5825 1.72318 24.5406 1.166C29.4987 0.608831 34.5134 1.46267 39.0077 3.62929C43.502 5.7959 47.2934 9.18727 49.9456 13.4132C52.5978 17.6392 54.0032 22.528 54 27.5173L46.05 27.5122C46.0522 24.0197 45.0685 20.5975 43.2119 17.6393C41.3553 14.6812 38.7014 12.3072 35.5554 10.7906C32.4094 9.27394 28.8991 8.67625 25.4284 9.06627C21.9578 9.45629 18.6677 10.8182 15.9368 12.9952L10.9811 6.77881Z" fill="#0482FF" stroke="white" stroke-width="0.207031"/>
</svg>
